<svg width="213" height="40" viewBox="0 0 213 40" fill="none" xmlns="http://www.w3.org/2000/svg">
<rect width="213" height="40" rx="20" fill="black"/>
<g clip-path="url(#clip0_307_3450)">
<path d="M81.1584 15.2246C80.2642 13.6924 79.0513 12.4794 77.5193 11.5853C75.987 10.6911 74.3143 10.2441 72.4998 10.2441C70.6856 10.2441 69.0123 10.6913 67.4804 11.5853C65.9483 12.4794 64.7354 13.6924 63.8412 15.2246C62.9471 16.7567 62.5 18.4297 62.5 20.2437C62.5 22.4227 63.1357 24.3821 64.4075 26.1225C65.6792 27.8629 67.3219 29.0673 69.3357 29.7356C69.5701 29.7791 69.7437 29.7485 69.8565 29.6446C69.9694 29.5405 70.0257 29.4102 70.0257 29.2541C70.0257 29.2281 70.0235 28.9938 70.0192 28.551C70.015 28.1648 70.0129 27.7786 70.0126 27.3924L69.7131 27.4442C69.5222 27.4792 69.2813 27.494 68.9904 27.4898C68.6998 27.4857 68.398 27.4553 68.0856 27.3986C67.773 27.3425 67.4822 27.2123 67.2131 27.0083C66.9442 26.8043 66.7532 26.5373 66.6403 26.2076L66.5101 25.908C66.4233 25.7085 66.2867 25.487 66.1001 25.2441C65.9134 25.0009 65.7246 24.8361 65.5337 24.7493L65.4425 24.6841C65.3818 24.6407 65.3254 24.5884 65.2733 24.5277C65.2212 24.467 65.1822 24.4063 65.1562 24.3454C65.1301 24.2845 65.1517 24.2346 65.2212 24.1954C65.2908 24.1562 65.4165 24.1372 65.5989 24.1372L65.8592 24.1761C66.0328 24.2109 66.2475 24.3149 66.5037 24.4886C66.7597 24.6621 66.9702 24.8878 67.1351 25.1654C67.3349 25.5214 67.5756 25.7927 67.8578 25.9793C68.1398 26.166 68.4242 26.2592 68.7106 26.2592C68.997 26.2592 69.2443 26.2375 69.4527 26.1943C69.6609 26.1509 69.8563 26.0856 70.0386 25.9989C70.1168 25.417 70.3295 24.9701 70.6766 24.6576C70.1818 24.6056 69.737 24.5273 69.342 24.4232C68.9471 24.319 68.5391 24.1498 68.1182 23.9152C67.697 23.6809 67.3476 23.39 67.0699 23.0429C66.7922 22.6957 66.5643 22.2398 66.3865 21.6757C66.2085 21.1114 66.1196 20.4605 66.1196 19.7227C66.1196 18.6722 66.4625 17.7782 67.1483 17.0403C66.827 16.2505 66.8574 15.3652 67.2394 14.3843C67.4911 14.3061 67.8644 14.3648 68.3591 14.56C68.854 14.7553 69.2162 14.9227 69.4464 15.0614C69.6765 15.2001 69.8609 15.3176 69.9998 15.4129C70.8072 15.1873 71.6405 15.0745 72.4997 15.0745C73.359 15.0745 74.1925 15.1873 74.9999 15.4129L75.4947 15.1006C75.8331 14.8922 76.2326 14.7012 76.6924 14.5275C77.1525 14.354 77.5043 14.3062 77.7474 14.3844C78.1379 15.3653 78.1727 16.2507 77.8514 17.0405C78.5371 17.7783 78.8802 18.6725 78.8802 19.7228C78.8802 20.4606 78.7909 21.1136 78.6132 21.6823C78.4354 22.251 78.2055 22.7064 77.9235 23.0495C77.6411 23.3925 77.2895 23.6811 76.8686 23.9153C76.4475 24.1497 76.0394 24.3189 75.6445 24.4232C75.2495 24.5274 74.8047 24.6058 74.31 24.6579C74.7612 25.0483 74.9869 25.6647 74.9869 26.5066V29.2537C74.9869 29.4098 75.0411 29.5401 75.1498 29.6442C75.2583 29.7481 75.4296 29.7787 75.664 29.7352C77.6781 29.0669 79.3208 27.8626 80.5924 26.1221C81.8639 24.3818 82.4999 22.4223 82.4999 20.2433C82.4994 18.4296 82.0521 16.7567 81.1584 15.2246Z" fill="white"/>
</g>
<path d="M102.169 20.2676H106.66V26.499C105.986 26.7275 105.292 26.8975 104.577 27.0088C103.868 27.1201 103.074 27.1758 102.195 27.1758C100.859 27.1758 99.7314 26.9092 98.8115 26.376C97.8975 25.8428 97.2031 25.084 96.7285 24.0996C96.2539 23.1094 96.0166 21.9346 96.0166 20.5752C96.0166 19.2451 96.2773 18.085 96.7988 17.0947C97.3262 16.1045 98.085 15.3369 99.0752 14.792C100.071 14.2412 101.267 13.9658 102.661 13.9658C103.376 13.9658 104.053 14.0332 104.691 14.168C105.336 14.2969 105.934 14.4814 106.484 14.7217L105.913 16.0225C105.438 15.8174 104.914 15.6416 104.34 15.4951C103.771 15.3486 103.183 15.2754 102.573 15.2754C101.524 15.2754 100.625 15.4922 99.875 15.9258C99.1309 16.3594 98.5596 16.9717 98.1611 17.7627C97.7686 18.5537 97.5723 19.4912 97.5723 20.5752C97.5723 21.6475 97.7451 22.582 98.0908 23.3789C98.4365 24.1699 98.9756 24.7852 99.708 25.2246C100.44 25.6641 101.384 25.8838 102.538 25.8838C103.118 25.8838 103.616 25.8516 104.032 25.7871C104.448 25.7168 104.826 25.6348 105.166 25.541V21.6035H102.169V20.2676ZM111.011 17.3672V27H109.552V17.3672H111.011ZM110.299 13.7637C110.539 13.7637 110.744 13.8428 110.914 14.001C111.09 14.1533 111.178 14.3936 111.178 14.7217C111.178 15.0439 111.09 15.2842 110.914 15.4424C110.744 15.6006 110.539 15.6797 110.299 15.6797C110.047 15.6797 109.836 15.6006 109.666 15.4424C109.502 15.2842 109.42 15.0439 109.42 14.7217C109.42 14.3936 109.502 14.1533 109.666 14.001C109.836 13.8428 110.047 13.7637 110.299 13.7637ZM117.216 25.9805C117.456 25.9805 117.702 25.96 117.954 25.9189C118.206 25.8779 118.411 25.8281 118.569 25.7695V26.9033C118.399 26.9795 118.162 27.0439 117.857 27.0967C117.559 27.1494 117.266 27.1758 116.979 27.1758C116.469 27.1758 116.006 27.0879 115.59 26.9121C115.174 26.7305 114.84 26.4258 114.588 25.998C114.342 25.5703 114.219 24.9785 114.219 24.2227V18.5098H112.848V17.7979L114.228 17.2266L114.808 15.1348H115.687V17.3672H118.508V18.5098H115.687V24.1787C115.687 24.7822 115.824 25.2334 116.1 25.5322C116.381 25.8311 116.753 25.9805 117.216 25.9805ZM121.979 13.3242V17.4111C121.979 17.6455 121.974 17.8828 121.962 18.123C121.95 18.3574 121.93 18.5742 121.9 18.7734H121.997C122.196 18.4336 122.448 18.1494 122.753 17.9209C123.063 17.6865 123.415 17.5107 123.808 17.3936C124.2 17.2705 124.616 17.209 125.056 17.209C125.829 17.209 126.474 17.332 126.989 17.5781C127.511 17.8242 127.9 18.2051 128.158 18.7207C128.422 19.2363 128.554 19.9043 128.554 20.7246V27H127.112V20.8213C127.112 20.0186 126.928 19.418 126.559 19.0195C126.195 18.6211 125.636 18.4219 124.88 18.4219C124.165 18.4219 123.594 18.5596 123.166 18.835C122.744 19.1045 122.439 19.5029 122.252 20.0303C122.07 20.5576 121.979 21.2021 121.979 21.9639V27H120.521V13.3242H121.979ZM139.514 17.3672V27H138.318L138.107 25.6465H138.028C137.829 25.9805 137.571 26.2617 137.255 26.4902C136.938 26.7188 136.581 26.8887 136.183 27C135.79 27.1172 135.371 27.1758 134.926 27.1758C134.164 27.1758 133.525 27.0527 133.01 26.8066C132.494 26.5605 132.104 26.1797 131.841 25.6641C131.583 25.1484 131.454 24.4863 131.454 23.6777V17.3672H132.931V23.5723C132.931 24.375 133.112 24.9756 133.476 25.374C133.839 25.7666 134.393 25.9629 135.137 25.9629C135.852 25.9629 136.42 25.8281 136.842 25.5586C137.27 25.2891 137.577 24.8936 137.765 24.3721C137.952 23.8447 138.046 23.2002 138.046 22.4385V17.3672H139.514ZM144.058 13.3242V16.7432C144.058 17.1357 144.046 17.5166 144.022 17.8857C144.005 18.2549 143.99 18.542 143.979 18.7471H144.058C144.321 18.3135 144.702 17.9473 145.2 17.6484C145.698 17.3496 146.334 17.2002 147.107 17.2002C148.314 17.2002 149.275 17.6191 149.99 18.457C150.711 19.2891 151.071 20.5283 151.071 22.1748C151.071 23.2588 150.907 24.1729 150.579 24.917C150.251 25.6611 149.788 26.2236 149.19 26.6045C148.593 26.9854 147.887 27.1758 147.072 27.1758C146.311 27.1758 145.684 27.0352 145.191 26.7539C144.705 26.4668 144.33 26.1182 144.066 25.708H143.952L143.653 27H142.599V13.3242H144.058ZM146.87 18.4219C146.173 18.4219 145.619 18.5596 145.209 18.835C144.799 19.1045 144.503 19.5146 144.321 20.0654C144.146 20.6104 144.058 21.3018 144.058 22.1396V22.2188C144.058 23.4316 144.26 24.3604 144.664 25.0049C145.068 25.6436 145.804 25.9629 146.87 25.9629C147.767 25.9629 148.438 25.6348 148.883 24.9785C149.334 24.3223 149.56 23.3848 149.56 22.166C149.56 20.9238 149.337 19.9893 148.892 19.3623C148.452 18.7354 147.778 18.4219 146.87 18.4219Z" fill="#E6E6E6"/>
<defs>
<clipPath id="clip0_307_3450">
<rect width="20" height="20" fill="white" transform="translate(62.5 10)"/>
</clipPath>
</defs>
</svg>
