<svg width="213" height="40" viewBox="0 0 213 40" fill="none" xmlns="http://www.w3.org/2000/svg">
<rect width="213" height="40" rx="20" fill="black"/>
<g clip-path="url(#clip0_307_3519)">
<path d="M78.2918 19.6374C78.2918 23.6006 75.2507 26.8118 71.5006 26.8118C67.7504 26.8118 64.7109 23.6006 64.7109 19.6374C64.7109 15.6742 67.752 12.4629 71.5022 12.4629C75.2523 12.4629 78.2918 15.6758 78.2918 19.6374Z" fill="#D43732"/>
<path d="M64.9869 21.4137C64.9869 21.4137 64.4953 13.9316 71.1699 13.7184L70.7035 12.916L67.081 14.1725L66.0458 15.4014L65.1398 17.1917L64.6245 19.2767L64.7805 20.6667L64.9869 21.4137Z" fill="#EF3E3A"/>
<path d="M66.5484 24.8887C65.2831 23.5508 64.5 21.7035 64.5 19.6641C64.5 17.6247 65.2831 15.7757 66.5484 14.4378C67.8137 13.0999 69.5658 12.2715 71.5008 12.2715C73.4342 12.2715 75.1879 13.0999 76.4532 14.4378C77.6885 15.7432 78.4638 17.5335 78.5 19.5143V19.8138C78.4622 21.7946 77.6869 23.585 76.4532 24.8903C75.1879 26.2282 73.4357 27.0566 71.5008 27.0566C69.5674 27.0566 67.8153 26.2266 66.5484 24.8887ZM66.8509 14.7422C65.6597 16.002 64.9223 17.7402 64.9223 19.6641C64.9223 21.5879 65.6597 23.3262 66.8509 24.5843C68.0437 25.8441 69.6856 26.6204 71.5024 26.6204C73.3191 26.6204 74.961 25.8441 76.1538 24.5843C77.345 23.3262 78.0824 21.5863 78.0824 19.6641C78.0824 17.7402 77.345 16.002 76.1538 14.7422C74.961 13.484 73.3191 12.7061 71.5024 12.7061C69.6856 12.7077 68.0421 13.484 66.8509 14.7422Z" fill="#221E1F"/>
<path d="M74.3609 19.6781L73.3256 19.8376L71.928 19.9987L71.0236 20.0247L70.1443 19.9987L69.4715 19.7839L68.8759 19.1165L68.4095 17.7542L68.3071 17.4596L67.6863 17.2448L67.3238 16.6296L67.0654 15.749L67.3506 14.9727L68.0234 14.7334L68.5655 15.0003L68.8239 15.5879L69.1343 15.5342L69.2383 15.3991L69.1343 14.7855L69.1091 14.0091L69.2651 12.9414L69.2588 12.3311L69.7299 11.5514L70.5587 10.9362L72.0068 10.2949L73.6108 10.5358L75.0085 11.5775L75.6545 12.6468L76.0689 13.4215L76.1713 15.3454L75.8609 17.0023L75.2921 18.472L74.7485 19.2467L74.3609 19.6781Z" fill="#F0D6B8"/>
<path d="M73.4799 24.2995L69.7818 24.459V25.1019L70.0922 27.3464L69.9362 27.5319L67.3505 26.6237L67.1693 26.3031L66.9109 23.2839L66.3152 21.4658L66.186 21.0394L68.2549 19.5697L68.9025 19.3027L69.4713 20.0238L69.9614 20.4795L70.5302 20.665L70.7886 20.7464L71.099 22.1348L71.3322 22.4294L71.9278 22.2145L71.5134 23.043L73.7651 24.14L73.4799 24.2995Z" fill="#345061"/>
<path d="M67.3506 14.974L68.0234 14.7331L68.5654 15L68.8238 15.5876L69.1343 15.5339L69.213 15.2132L69.057 14.598L69.213 13.1299L69.0823 12.3275L69.5487 11.766L70.5571 10.9391L70.2719 10.5371L68.8506 11.2598L68.255 11.7399L67.9194 12.4886L67.401 13.2096L67.2466 14.0641L67.3506 14.974Z" fill="#6D6B6E"/>
<path d="M68.4091 12.4628C68.4091 12.4628 68.7967 11.4748 70.3488 10.993C71.9008 10.5113 70.426 10.6463 70.426 10.6463L68.7447 11.3137L68.0987 11.981L67.8135 12.5165L68.4091 12.4628Z" fill="#DDD9D8"/>
<path d="M67.6342 14.7874C67.6342 14.7874 67.0906 12.9173 69.161 12.6488L69.0838 12.3281L67.661 12.6748L67.2466 14.0648L67.3506 14.973L67.6342 14.7874Z" fill="#DDD9D8"/>
<path d="M68.4614 17.2721L68.8002 16.9336C68.8002 16.9336 68.953 16.9515 68.9783 17.1387C69.0035 17.3258 69.0822 19.0088 70.1947 19.9186C70.2971 20.0016 69.3674 19.7852 69.3674 19.7852L68.5402 18.4489L68.4614 17.2721Z" fill="#F5E2CC"/>
<path d="M73.2231 16.7641C73.2231 16.7641 73.2829 15.9552 73.4941 16.017C73.7052 16.0789 73.7052 16.297 73.7052 16.297C73.7052 16.297 73.1916 16.6388 73.2231 16.7641Z" fill="#F5E2CC"/>
<path d="M75.369 13.7988C75.369 13.7988 74.942 13.8916 74.9026 14.2806C74.8632 14.668 75.369 14.3604 75.4462 14.3343L75.369 13.7988Z" fill="#F5E2CC"/>
<path d="M72.2397 13.8242C72.2397 13.8242 71.6709 13.904 71.6709 14.2783C71.6709 14.6527 72.3169 14.625 72.4997 14.4655L72.2397 13.8242Z" fill="#F5E2CC"/>
<path d="M68.7195 15.5618C68.7195 15.5618 67.7362 14.9466 67.6322 15.5358C67.5282 16.1234 67.2966 16.5514 67.7866 17.165L67.451 17.0576L67.1406 16.2292L67.0366 15.4284L67.6322 14.7871L68.3051 14.8408L68.6927 15.1615L68.7195 15.5618Z" fill="#F5E2CC"/>
<path d="M69.1863 13.8792C69.1863 13.8792 69.6259 11.5273 71.8508 11.0732C73.6833 10.6988 74.6445 11.1529 75.0069 11.581C75.0069 11.581 73.3777 9.57743 71.8256 10.191C70.2735 10.8063 69.1343 11.9277 69.1611 12.6503C69.2052 13.8792 69.1863 13.8792 69.1863 13.8792Z" fill="#F5E2CC"/>
<path d="M75.1878 11.8478C75.1878 11.8478 74.4378 11.8217 74.4126 12.5151C74.4126 12.5151 74.4126 12.6209 74.4646 12.7299C74.4646 12.7299 75.0602 12.035 75.421 12.4093L75.1878 11.8478Z" fill="#F5E2CC"/>
<path d="M71.9028 12.8019C71.9028 12.8019 71.7736 11.7358 70.8928 12.3559C70.3239 12.7563 70.3744 13.3179 70.4784 13.4237C70.5808 13.5311 70.554 13.7459 70.6328 13.5978C70.7116 13.4497 70.6848 12.9696 70.97 12.8361C71.2552 12.7026 71.7216 12.5529 71.9028 12.8019Z" fill="#F5E2CC"/>
<path d="M69.4715 20.0244L67.0402 21.1475C67.0402 21.1475 68.0486 25.2897 67.5318 26.5723L67.1694 26.4388L67.1442 24.8633L66.4698 21.8685L66.1846 21.04L68.7199 19.2773L69.4715 20.0244Z" fill="#4A728C"/>
<path d="M69.7203 22.3164L70.0654 22.751V24.3542H69.6526C69.6526 24.3542 69.6006 23.2311 69.6006 23.0977C69.6006 22.9642 69.6526 22.4824 69.6526 22.4824L69.7203 22.3164Z" fill="#4A728C"/>
<path d="M69.7299 24.5938L68.5654 24.6475L68.9011 24.8883L69.7299 25.0218V24.5938Z" fill="#4A728C"/>
<path d="M73.7129 24.3268L74.6693 24.3008L74.9025 26.7601L73.9193 26.8936L73.7129 24.3268Z" fill="#345061"/>
<path d="M73.9717 24.3252L75.4213 24.2454C75.4213 24.2454 76.0169 22.696 76.0169 22.6162C76.0169 22.5365 76.5353 20.3717 76.5353 20.3717L75.3709 19.1152L75.1377 18.9004L74.5169 19.5417V22.027L73.9717 24.3252Z" fill="#345061"/>
<path d="M74.6174 24.1406L73.7114 24.3278L73.8406 25.0765C74.1763 25.2376 74.7467 24.8096 74.7467 24.8096L74.6174 24.1406Z" fill="#4A728C"/>
<path d="M74.6445 19.4639L76.455 20.8522L76.507 20.2109L75.1361 18.9023L74.6445 19.4639Z" fill="#4A728C"/>
<path d="M70.6263 29.5918L70.0921 27.3473L69.8259 25.6904L69.7817 24.46L72.2051 24.3281H73.7131L73.576 27.1341L73.8076 29.2972L73.7824 29.6992L71.8175 29.8587L70.6263 29.5918Z" fill="white"/>
<path d="M73.3758 24.2995C73.3758 24.2995 73.2466 27.0794 73.6342 29.0553C73.6342 29.0553 72.859 29.5632 71.7197 29.6966L73.8926 29.6169L74.151 29.4557L73.8406 25.0726L73.7634 24.1367L73.3758 24.2995Z" fill="#DDD9D8"/>
<path d="M74.9466 26.5436L75.9567 26.249L77.8711 26.1432L78.1547 25.235L77.6379 23.6579L77.0423 23.5781L76.2151 23.8451L75.4209 24.2454L74.9986 24.1657L74.6709 24.2992L74.9466 26.5436Z" fill="white"/>
<path d="M74.9297 26.0111C74.9297 26.0111 75.6025 25.6904 75.7065 25.7165L75.4213 24.2467L75.7569 24.1133C75.7569 24.1133 75.9901 25.5033 75.9901 25.6628C75.9901 25.6628 77.4398 25.7425 77.5674 25.7425C77.5674 25.7425 77.8778 25.1273 77.8006 24.486L78.0858 25.3405L78.111 25.8223L77.6966 26.4635L77.2302 26.571L76.455 26.5449L76.1965 26.1982L75.2905 26.3317L75.0053 26.4391L74.9297 26.0111Z" fill="#DDD9D8"/>
<path d="M73.9115 24.1133L73.3427 22.6159L72.7471 21.7337C72.7471 21.7337 72.8763 21.3594 73.0575 21.3594C73.2387 21.3594 73.6531 21.3594 73.6531 21.3594L74.2219 21.5726L74.1699 22.5605L73.9115 24.1133Z" fill="white"/>
<path d="M74.0236 23.6048C74.0236 23.6048 73.2987 22.1611 73.2987 21.9479C73.2987 21.9479 73.4279 21.6273 73.6091 21.707C73.7904 21.7868 74.178 22.0016 74.178 22.0016V21.4938L73.2987 21.3066L72.7031 21.3864L73.7116 23.8457L73.918 23.8717L74.0236 23.6048Z" fill="#DDD9D8"/>
<path d="M70.8594 20.0781L70.144 19.9984L69.4712 19.7852V20.0244L69.7989 20.3988L70.8326 20.8805L70.8594 20.0781Z" fill="white"/>
<path d="M69.7028 20.1602C69.7028 20.1602 70.5048 20.5068 70.7632 20.4271L70.7885 20.7477L70.0636 20.5866L69.624 20.266L69.7028 20.1602Z" fill="#DDD9D8"/>
<path d="M74.9437 21.451C74.5041 21.438 74.1086 21.3843 73.7604 21.2833C73.784 21.1369 73.7399 20.992 73.7745 20.8862C73.8722 20.8146 74.033 20.8162 74.1795 20.7983C74.0534 20.7348 73.8754 20.7088 73.7288 20.7446C73.7257 20.6421 73.6816 20.5802 73.6548 20.4988C73.9022 20.4077 74.4852 19.8104 74.8113 20.0089C74.9673 20.1033 75.0335 20.6404 75.0461 20.9009C75.0587 21.119 75.0304 21.337 74.9437 21.451Z" fill="#D43732"/>
<path d="M74.9437 21.451C74.5041 21.438 74.1086 21.3843 73.7604 21.2833C73.784 21.1369 73.7399 20.992 73.7745 20.8862C73.8722 20.8146 74.033 20.8162 74.1795 20.7983C74.0534 20.7348 73.8754 20.7088 73.7288 20.7446C73.7257 20.6421 73.6816 20.5802 73.6548 20.4988C73.9022 20.4077 74.4852 19.8104 74.8113 20.0089C74.9673 20.1033 75.0335 20.6404 75.0461 20.9009C75.0587 21.119 75.0304 21.337 74.9437 21.451Z" stroke="#D43732" stroke-width="0.7881"/>
<path d="M72.8465 20.7088C72.8449 20.743 72.8433 20.7772 72.8417 20.813C72.7047 20.9058 72.4825 20.9058 72.3328 20.9823C72.555 20.992 72.7299 21.0474 72.8796 21.1255C72.8764 21.2118 72.8733 21.298 72.8701 21.3843C72.618 21.5617 72.3895 21.827 72.0933 21.993C71.9531 22.0712 71.463 22.2746 71.3133 22.2388C71.2298 22.2193 71.2219 22.1102 71.1873 22.0093C71.1164 21.7912 70.9509 21.4445 70.9352 21.1174C70.9163 20.7023 70.8769 20.009 71.3086 20.0952C71.6568 20.1636 72.0634 20.3296 72.3328 20.4826C72.4998 20.5754 72.5959 20.6909 72.8465 20.7088Z" fill="#D43732"/>
<path d="M72.8465 20.7088C72.8449 20.743 72.8433 20.7772 72.8417 20.813C72.7047 20.9058 72.4825 20.9058 72.3328 20.9823C72.555 20.992 72.7299 21.0474 72.8796 21.1255C72.8764 21.2118 72.8733 21.298 72.8701 21.3843C72.618 21.5617 72.3895 21.827 72.0933 21.993C71.9531 22.0712 71.463 22.2746 71.3133 22.2388C71.2298 22.2193 71.2219 22.1102 71.1873 22.0093C71.1164 21.7912 70.9509 21.4445 70.9352 21.1174C70.9163 20.7023 70.8769 20.009 71.3086 20.0952C71.6568 20.1636 72.0634 20.3296 72.3328 20.4826C72.4998 20.5754 72.5959 20.6909 72.8465 20.7088Z" stroke="#D43732" stroke-width="0.7881"/>
<path d="M73.0953 21.2048C73.0575 20.9802 73.0134 20.9151 73.0307 20.7181C73.6122 20.3177 73.7209 21.4066 73.0953 21.2048Z" fill="#D43732"/>
<path d="M73.0953 21.2048C73.0575 20.9802 73.0134 20.9151 73.0307 20.7181C73.6122 20.3177 73.7209 21.4066 73.0953 21.2048Z" stroke="#D43732" stroke-width="0.7881"/>
<path d="M73.9386 21.3887C73.9386 21.3887 73.7574 21.1217 73.8866 21.042C74.0158 20.9622 74.145 21.042 74.2222 20.9085C74.2994 20.7751 74.2222 20.6937 74.2474 20.5342C74.2726 20.3747 74.4034 20.347 74.5326 20.321C74.6618 20.2949 75.0242 20.2412 75.0762 20.3747L74.9218 19.8929L74.6114 19.7871L73.6282 20.3747L73.5762 20.6693V21.2568L73.9386 21.3887Z" fill="#EF3E3A"/>
<path d="M71.2218 22.2687C71.1903 21.852 71.1588 21.4353 71.121 21.0187C71.0659 20.3969 71.266 20.5044 71.7875 20.5044C71.8679 20.5044 72.2776 20.6036 72.3075 20.6655C72.4493 20.9633 72.0711 20.8966 72.4698 21.1212C72.8054 21.31 73.401 21.0057 73.2639 20.5841C73.1883 20.4897 72.8669 20.5548 72.7534 20.493C72.5517 20.3855 72.3485 20.2765 72.1468 20.1691C71.8899 20.0307 71.2959 19.8305 71.0217 20.0226C70.3269 20.5109 71.0659 21.7299 71.3132 22.2394L71.2218 22.2687Z" fill="#EF3E3A"/>
<path d="M71.9026 12.8033C71.1967 12.634 70.8469 13.1076 70.6342 13.6008C70.4435 13.552 70.5191 13.285 70.568 13.1483C70.694 12.7902 71.203 12.3134 71.6174 12.3768C71.7955 12.4029 72.0381 12.5721 71.9026 12.8033Z" fill="#221E1F"/>
<path d="M75.3377 13.6309C75.3488 13.6309 75.3598 13.6309 75.3708 13.6325C75.53 13.9743 75.6686 14.3356 75.8687 14.6383C75.7332 14.9622 74.8493 15.2487 74.8635 14.6676C75.0557 14.5814 75.385 14.6497 75.5552 14.5391C75.4575 14.2607 75.3157 14.0247 75.3377 13.6309Z" fill="#221E1F"/>
<path d="M72.2636 13.6387C72.4149 13.9251 72.4637 14.2246 72.678 14.4427C72.7757 14.5404 72.9632 14.6592 72.8702 14.9294C72.8482 14.9928 72.689 15.1361 72.5976 15.1637C72.262 15.2663 71.4789 15.1849 71.7436 14.752C72.0209 14.765 72.3944 14.9375 72.6024 14.7308C72.4432 14.4671 72.1596 13.9463 72.2636 13.6387Z" fill="#221E1F"/>
<path d="M75.2113 16.5497C74.7055 16.8849 74.1414 17.2512 73.3126 17.1649C73.1361 17.0054 73.0684 16.6522 73.2401 16.4178C73.33 16.5773 73.2732 16.8687 73.5222 16.9126C73.9917 16.9956 74.5401 16.6148 74.8773 16.4829C75.0868 16.1167 74.8599 15.9832 74.6709 15.7472C74.2832 15.2655 73.7648 14.6681 73.7837 13.9471C73.9413 13.8299 73.9539 14.1262 73.976 14.1799C74.1777 14.6681 74.6866 15.2931 75.0585 15.7114C75.1499 15.814 75.2996 15.9133 75.3153 15.98C75.3642 16.1818 75.1924 16.4178 75.2113 16.5497Z" fill="#221E1F"/>
<path d="M68.543 16.1954C68.3855 16.101 68.3461 15.6908 68.1601 15.6778C67.8938 15.6615 67.9427 16.2117 67.9443 16.5339C67.7615 16.363 67.73 15.8341 67.8639 15.5622C67.7095 15.4841 67.6417 15.6485 67.5566 15.7055C67.6669 14.8868 68.7179 15.3262 68.543 16.1954Z" fill="#221E1F"/>
<path d="M75.5345 16.8906C75.2997 17.3545 74.9657 17.8639 74.2755 17.8786C74.2613 17.7288 74.2503 17.5026 74.2771 17.4115C74.8034 17.3594 75.1295 17.0811 75.5345 16.8906Z" fill="#221E1F"/>
<path d="M72.2241 17.1914C72.6653 17.4307 73.4736 17.4567 74.074 17.4388C74.1055 17.5739 74.1055 17.7415 74.1071 17.9076C73.3366 17.9466 72.4258 17.7513 72.2241 17.1914Z" fill="#221E1F"/>
<path d="M72.1404 17.6387C72.446 18.4297 73.4923 18.3369 74.3763 18.3158C74.3369 18.4183 74.2534 18.5387 74.1478 18.5843C73.8642 18.7031 73.0842 18.7943 72.6903 18.5778C72.4413 18.4411 72.2806 18.1318 72.1451 17.9495C72.0789 17.8633 71.7512 17.6387 72.1404 17.6387Z" fill="#221E1F"/>
<path d="M75.1752 21.9976C74.8175 22.6307 74.4756 23.2801 74.0518 23.8384C74.2298 23.298 74.3054 22.3931 74.3322 21.7046C74.7041 21.5239 75.0224 21.7453 75.1752 21.9976Z" fill="#81B0C4"/>
<path d="M77.0994 24.2715C76.6992 24.3545 76.4187 24.7565 76.0264 24.7305C76.2422 24.418 76.6188 24.2861 77.0994 24.2715Z" fill="#221E1F"/>
<path d="M77.2759 24.9176C76.9497 24.9534 76.5668 25.0087 76.2344 24.9794C76.3919 24.7321 76.997 24.8183 77.2759 24.9176Z" fill="#221E1F"/>
<path d="M77.389 25.4772C77.0219 25.4853 76.5665 25.4772 76.2183 25.4479C76.4247 25.2184 77.1511 25.3633 77.389 25.4772Z" fill="#221E1F"/>
<path d="M74.4851 27.0031C74.5371 27.4784 74.7199 27.9618 74.6978 28.4826C74.4946 28.5526 74.3795 28.6145 74.1069 28.6145C74.088 28.1717 74.0297 27.4947 74.0486 27.0731C74.181 27.0812 74.378 26.9738 74.4851 27.0031Z" fill="#DDD9D8"/>
<path d="M73.8942 19.9922C73.7099 20.1159 73.5539 20.2705 73.3758 20.404C72.9835 20.4235 72.7692 20.3763 72.4824 20.1436C72.4871 20.1257 72.5155 20.1338 72.5171 20.111C72.9362 20.3031 73.4704 20.0313 73.8942 19.9922Z" fill="#F0D6B8"/>
<path d="M71.6899 22.9466C71.805 22.4307 72.2572 22.1621 72.6684 21.8789C73.0923 22.4339 73.3491 23.1484 73.6343 23.8385C72.9631 23.6286 72.2777 23.29 71.6899 22.9466Z" fill="#81B0C4"/>
<path d="M75.7094 23.818C76.3366 23.4958 77.5105 22.9505 77.9028 23.8197C78.0478 24.1403 78.2179 24.6823 78.2936 25.0111C78.3991 25.4782 78.1785 26.458 77.7137 26.6143C77.304 26.7526 76.8266 26.7445 76.3318 26.6419C76.2735 26.5915 76.2089 26.5052 76.1632 26.4141C75.8119 26.3994 75.481 26.4336 75.2021 26.5833C75.2289 26.8535 75.0524 26.8958 74.8869 26.9512C74.764 27.4525 75.1327 28.1084 75.0429 28.5658C74.9799 28.8913 74.5923 28.9434 74.3071 29.0036C74.2976 29.1842 74.3197 29.3356 74.3386 29.4886C74.274 29.7376 73.9809 29.8776 73.702 29.9134C73.3034 29.9622 72.8133 29.9997 72.3154 29.998C71.6741 29.9964 71.0202 29.9329 70.527 29.749C70.2812 29.1289 70.089 28.3737 69.8857 27.6641C69.0301 27.7585 68.3368 27.2832 67.6845 26.9707C67.4591 26.8617 67.1456 26.8031 67.0605 26.6175C66.9785 26.4385 67.0116 26.0918 66.9927 25.7663C66.9407 24.9346 66.8966 24.1322 66.6839 23.2809C66.5878 22.8984 66.4208 22.5615 66.3057 22.1937C66.1986 21.8519 66.0111 21.4303 65.9622 21.0902C65.8897 20.5856 66.3498 20.5579 66.6429 20.3382C67.0983 19.9997 67.4544 19.8125 67.946 19.5081C68.0926 19.417 68.5306 19.1891 68.581 19.0833C68.6803 18.8734 68.4108 18.5804 68.3384 18.416C68.2249 18.1572 68.165 17.9375 68.1477 17.682C67.7349 17.6152 67.4213 17.3613 67.2322 17.0749C66.9187 16.6012 66.7028 15.7256 66.9722 15.0583C66.9927 15.0062 67.0999 14.902 67.1156 14.8223C67.1471 14.6628 67.0573 14.4528 67.0526 14.2835C67.0242 13.4176 67.1944 12.6706 67.7601 12.4085C67.9886 11.4645 68.8095 11.152 69.5832 10.6833C69.8715 10.5075 70.1914 10.3968 70.5191 10.2715C71.6993 9.82227 73.5098 9.9069 74.4899 10.6719C74.9043 10.9974 75.5692 11.681 75.8071 12.1774C76.4343 13.4876 76.3901 15.6751 75.9521 17.2686C75.8922 17.4818 75.8071 17.7975 75.6874 18.0531C75.6039 18.2321 75.3455 18.5918 75.377 18.7497C75.4101 18.9124 75.9663 19.3503 76.0876 19.4707C76.3035 19.6855 76.7116 19.9704 76.7447 20.2406C76.7809 20.5286 76.6218 20.9225 76.5414 21.2008C76.2767 22.1318 76.0151 22.9896 75.7094 23.818ZM74.2125 11.0267C73.4089 10.5579 72.0491 10.2064 71.1951 10.6475C70.5065 11.0023 69.5737 11.5898 69.2554 12.3337C69.5516 13.0514 69.1672 13.7106 69.1435 14.4398C69.1309 14.8272 69.32 15.1673 69.3358 15.5889C69.2349 15.7614 68.9229 15.7842 68.7102 15.7712C68.6377 15.3984 68.5117 14.9769 68.1383 14.9346C67.612 14.876 67.2259 15.3252 67.2023 15.7956C67.1739 16.349 67.6135 17.2669 68.2375 17.2035C68.4786 17.179 68.5385 16.93 68.8 16.9316C68.9419 17.2246 68.581 17.3174 68.5432 17.5257C68.5338 17.5794 68.5731 17.7926 68.5952 17.8919C68.7087 18.3753 68.9623 19.002 69.2097 19.3698C69.5249 19.8369 70.1457 19.9069 70.8122 19.9525C70.9319 19.6872 71.37 19.7083 71.6568 19.7783C71.3133 19.6383 70.995 19.2982 70.7318 18.9971C70.4277 18.652 70.1205 18.2826 70.1047 17.8301C70.6783 18.652 71.151 19.3682 72.1941 19.7295C72.9819 20.0029 73.9037 19.6042 74.5103 19.1647C74.7625 18.9824 74.9106 18.6911 75.0902 18.4258C75.7599 17.4329 76.0703 16.0137 76.0025 14.6383C75.9742 14.0719 75.9757 13.5072 75.7914 13.1247C75.5991 12.7259 74.9484 12.3678 74.5671 12.7292C74.4962 12.3418 74.8838 12.1009 75.3392 12.2409C75.0161 11.8145 74.6742 11.2952 74.2125 11.0267ZM70.1851 10.8135C69.4114 11.0397 68.4187 11.6208 68.102 12.3385C68.3478 12.3011 68.5196 12.1742 68.7622 12.1579C68.8536 12.1514 68.9734 12.1986 69.0789 12.1709C69.2885 12.1172 69.4666 11.6305 69.6257 11.4482C69.7801 11.2708 69.9661 11.196 70.0937 11.0348C70.1756 10.9941 70.2969 10.9974 70.3001 10.8704C70.2654 10.8298 70.2276 10.8005 70.1851 10.8135ZM67.7396 13.0677C67.3977 13.4567 67.4702 14.1842 67.5111 14.7018C68.1288 14.2998 68.9497 14.7344 68.9419 15.4163C69.2365 15.4082 69.0522 15.0355 68.9986 14.7962C68.8237 14.0117 69.2932 13.1605 69.0191 12.4443C68.4896 12.485 68.0547 12.7096 67.7396 13.0677ZM74.5939 19.6383C75.3108 19.2786 75.4416 20.9811 75.1595 21.5296C75.2036 21.6924 75.3533 21.7559 75.4132 21.904C75.013 22.6445 74.5686 23.3363 74.1605 24.0687C74.4646 23.8734 74.898 24.0329 75.2556 23.888C75.3864 23.8343 75.481 23.5251 75.5802 23.2777C75.8528 22.5973 76.138 21.7396 76.2657 21.0902C76.294 20.9421 76.3728 20.6198 76.3555 20.488C76.324 20.252 76.0151 20.0778 75.8576 19.9313C75.5676 19.6611 75.3848 19.4251 75.0823 19.1745C74.9578 19.3617 74.6947 19.4854 74.5939 19.6383ZM69.3799 20.2259C69.309 20.1738 68.8331 19.5342 68.7685 19.5619C67.9082 19.9134 67.103 20.5189 66.3829 21.0918C67.0684 22.612 67.3457 24.474 67.3945 26.2692C68.1792 26.6484 68.8709 27.1953 69.9377 27.2523C69.8148 26.3506 69.7013 25.5466 69.632 24.6969C69.3641 24.5814 68.9797 24.7018 68.7291 24.6611C68.7276 24.3486 69.112 24.5244 69.1435 24.3145C69.1672 24.1566 68.9324 24.1436 69.008 23.8945C69.205 23.9678 69.3074 24.1305 69.5154 24.1924C69.7061 23.7611 69.5138 22.9977 69.5406 22.6364C69.5453 22.568 69.5737 22.2604 69.7202 22.3141C69.851 22.363 69.7124 23.1312 69.7265 23.473C69.7392 23.7871 69.6903 24.0915 69.8132 24.2884C70.8437 24.1436 71.89 24.0508 73.0056 24.0182C72.7597 23.9092 72.4698 23.8066 72.15 23.6211C71.9766 23.5202 71.4314 23.3102 71.381 23.141C71.3007 22.8691 71.589 22.7259 71.6394 22.4948C71.1195 22.7878 71.017 22.2148 70.8957 21.8079C70.7838 21.4401 70.7208 21.165 70.6924 20.9518C70.2449 20.7321 69.7659 20.5091 69.3799 20.2259ZM75.0492 20.903C75.0366 20.6426 74.9704 20.1055 74.8144 20.0111C74.4867 19.8141 73.9037 20.4098 73.6579 20.501C73.6847 20.5807 73.7288 20.6442 73.7319 20.7467C73.8785 20.7093 74.055 20.7354 74.1826 20.8005C74.0361 20.8167 73.8738 20.8167 73.7776 20.8883C73.7414 20.9941 73.7855 21.139 73.7635 21.2855C74.1101 21.3864 74.5072 21.4401 74.9468 21.4531C75.0303 21.3376 75.0587 21.1195 75.0492 20.903ZM72.5171 20.1087C72.5171 20.1315 72.4872 20.1234 72.4824 20.1413C72.7708 20.374 72.9851 20.4212 73.3758 20.4017C73.5523 20.2699 73.7099 20.1136 73.8942 19.9899C73.4704 20.0306 72.9362 20.3024 72.5171 20.1087ZM69.7565 19.998C69.5327 20.2324 70.3836 20.5531 70.6562 20.571C70.6546 20.4229 70.7381 20.2829 70.7208 20.1755C70.3994 20.1169 69.9755 20.1559 69.7565 19.998ZM72.3343 20.4831C72.0649 20.3301 71.6583 20.1641 71.3101 20.0957C70.8784 20.0111 70.9178 20.7044 70.9367 21.1178C70.9509 21.445 71.1163 21.7917 71.1888 22.0098C71.2219 22.1123 71.2298 22.2197 71.3148 22.2393C71.4645 22.2751 71.9546 22.0732 72.0948 21.9935C72.391 21.8275 72.6195 21.5622 72.8716 21.3848C72.8748 21.2985 72.8779 21.2122 72.8811 21.126C72.7298 21.0479 72.5565 20.9925 72.3343 20.9827C72.4856 20.9046 72.7062 20.9063 72.8433 20.8135C72.8448 20.7793 72.8464 20.7451 72.848 20.7093C72.5959 20.6914 72.4998 20.5758 72.3343 20.4831ZM73.0292 20.7174C73.0119 20.9144 73.056 20.9795 73.0938 21.2041C73.7209 21.4059 73.6122 20.3171 73.0292 20.7174ZM73.5397 21.4124C73.379 21.3945 73.2419 21.6029 73.0339 21.5133C72.9866 21.5671 72.9425 21.6273 72.8937 21.681C73.3554 22.2555 73.5649 23.071 73.921 23.7464C74.1133 23.097 74.0896 22.3874 74.1322 21.6794C73.869 21.6956 73.7241 21.4336 73.5397 21.4124ZM74.3323 21.7038C74.3055 22.3939 74.2283 23.2972 74.0518 23.8376C74.4757 23.2793 74.8192 22.6299 75.1753 21.9967C75.0224 21.7445 74.7042 21.5231 74.3323 21.7038ZM73.6327 23.8376C73.3491 23.1475 73.0906 22.4346 72.6668 21.8779C72.2555 22.1628 71.8049 22.4297 71.6883 22.9456C72.2776 23.2907 72.963 23.6292 73.6327 23.8376ZM77.3891 26.3766C77.7941 26.2757 78.0478 25.7646 77.9343 25.2389C77.8587 24.8857 77.7232 24.2217 77.5782 23.9971C77.4711 23.8311 77.1811 23.6113 76.9511 23.7643C76.5745 24.0133 75.9127 24.085 75.6385 24.3861C75.7756 24.8597 75.8182 25.5075 75.8749 26.1081C76.3444 26.139 76.9227 25.9746 77.3135 26.1488C77.0409 26.2399 76.6864 26.2415 76.4516 26.3734C76.6438 26.4694 77.0945 26.4482 77.3891 26.3766ZM75.3029 24.4072C75.1737 24.3763 75.024 24.4072 74.9011 24.4089C74.9594 25.0046 75.0996 25.6621 75.1485 26.2871C75.3423 26.2936 75.4447 26.1992 75.6039 26.1667C75.6133 25.6165 75.5597 24.8613 75.3029 24.4072ZM73.9242 24.5244C73.9147 25.2552 73.9557 25.9762 74.0093 26.707C74.2803 26.6647 74.4662 26.637 74.7183 26.5801C74.6364 25.8753 74.6474 25.0827 74.4788 24.4609C74.2866 24.4626 74.1164 24.4577 73.9242 24.5244ZM69.8164 24.6725C69.996 26.3734 70.2544 27.804 70.7318 29.3112C71.7875 29.6416 73.0623 29.6709 73.9951 29.373C73.8233 28.5218 73.899 27.4883 73.7981 26.5801C73.7225 25.8981 73.7603 25.2113 73.6579 24.5163C72.5265 24.2705 70.9272 24.4577 69.8164 24.6725ZM74.0471 27.0716C74.0298 27.4948 74.0881 28.1702 74.107 28.613C74.378 28.613 74.4946 28.5511 74.6978 28.4811C74.7215 27.9603 74.5371 27.4785 74.4851 27.0016C74.378 26.974 74.181 27.0814 74.0471 27.0716Z" fill="#221E1F"/>
<path d="M71.523 17.392C71.5576 17.3448 71.7436 17.2748 72.0067 17.4034C72.0067 17.4034 71.6963 17.4571 71.7215 17.9926L71.5923 17.9666C71.5923 17.9666 71.4584 17.4815 71.523 17.392Z" fill="#F5E2CC"/>
<path d="M73.7905 21.9883C73.7905 22.0697 73.7274 22.1348 73.6486 22.1348C73.5699 22.1348 73.5068 22.0697 73.5068 21.9883C73.5068 21.9069 73.5699 21.8418 73.6486 21.8418C73.7274 21.8402 73.7905 21.9069 73.7905 21.9883Z" fill="#1D1919"/>
<path d="M73.9335 22.67C73.9335 22.7513 73.8705 22.8164 73.7917 22.8164C73.7129 22.8164 73.6499 22.7513 73.6499 22.67C73.6499 22.5886 73.7129 22.5235 73.7917 22.5235C73.8689 22.5218 73.9335 22.5869 73.9335 22.67Z" fill="#1D1919"/>
</g>
<path d="M90.5996 30.3838C90.3066 30.3838 90.0488 30.3633 89.8262 30.3223C89.6035 30.2812 89.4131 30.2256 89.2549 30.1553V28.8809C89.4424 28.9395 89.6445 28.9834 89.8613 29.0127C90.0781 29.0479 90.3125 29.0654 90.5645 29.0654C90.8926 29.0654 91.1943 29.001 91.4697 28.8721C91.7451 28.7432 91.9648 28.5234 92.1289 28.2129C92.293 27.9023 92.375 27.4746 92.375 26.9297V14.1504H93.8779V26.8154C93.8779 27.6182 93.7432 28.2832 93.4736 28.8105C93.21 29.3379 92.832 29.7305 92.3398 29.9883C91.8535 30.252 91.2734 30.3838 90.5996 30.3838ZM100.777 17.1914C101.598 17.1914 102.301 17.373 102.887 17.7363C103.473 18.0996 103.921 18.6094 104.231 19.2656C104.542 19.916 104.697 20.6777 104.697 21.5508V22.4561H98.0439C98.0615 23.5869 98.3428 24.4482 98.8877 25.04C99.4326 25.6318 100.2 25.9277 101.19 25.9277C101.8 25.9277 102.339 25.8721 102.808 25.7607C103.276 25.6494 103.763 25.4854 104.267 25.2686V26.5518C103.78 26.7686 103.297 26.9268 102.816 27.0264C102.342 27.126 101.779 27.1758 101.129 27.1758C100.203 27.1758 99.3945 26.9883 98.7031 26.6133C98.0176 26.2324 97.4844 25.6758 97.1035 24.9434C96.7227 24.2109 96.5322 23.3145 96.5322 22.2539C96.5322 21.2168 96.7051 20.3203 97.0508 19.5645C97.4023 18.8027 97.8945 18.2168 98.5273 17.8066C99.166 17.3965 99.916 17.1914 100.777 17.1914ZM100.76 18.3867C99.9805 18.3867 99.3594 18.6416 98.8965 19.1514C98.4336 19.6611 98.1582 20.373 98.0703 21.2871H103.168C103.162 20.7129 103.071 20.209 102.896 19.7754C102.726 19.3359 102.465 18.9961 102.113 18.7559C101.762 18.5098 101.311 18.3867 100.76 18.3867ZM111.737 17.1914C112.88 17.1914 113.744 17.4727 114.33 18.0352C114.916 18.5918 115.209 19.4883 115.209 20.7246V27H113.768V20.8213C113.768 20.0186 113.583 19.418 113.214 19.0195C112.851 18.6211 112.291 18.4219 111.535 18.4219C110.469 18.4219 109.719 18.7236 109.285 19.3271C108.852 19.9307 108.635 20.8066 108.635 21.9551V27H107.176V17.3672H108.354L108.573 18.7559H108.652C108.857 18.416 109.118 18.1318 109.435 17.9033C109.751 17.6689 110.105 17.4932 110.498 17.376C110.891 17.2529 111.304 17.1914 111.737 17.1914ZM119.665 13.3242V20.4258C119.665 20.6602 119.656 20.9473 119.639 21.2871C119.621 21.6211 119.606 21.917 119.595 22.1748H119.656C119.779 22.0225 119.958 21.7969 120.192 21.498C120.433 21.1992 120.635 20.959 120.799 20.7773L123.998 17.3672H125.712L121.836 21.4805L125.993 27H124.235L120.834 22.4385L119.665 23.5107V27H118.215V13.3242H119.665ZM129.131 17.3672V27H127.672V17.3672H129.131ZM128.419 13.7637C128.659 13.7637 128.864 13.8428 129.034 14.001C129.21 14.1533 129.298 14.3936 129.298 14.7217C129.298 15.0439 129.21 15.2842 129.034 15.4424C128.864 15.6006 128.659 15.6797 128.419 15.6797C128.167 15.6797 127.956 15.6006 127.786 15.4424C127.622 15.2842 127.54 15.0439 127.54 14.7217C127.54 14.3936 127.622 14.1533 127.786 14.001C127.956 13.8428 128.167 13.7637 128.419 13.7637ZM136.786 17.1914C137.929 17.1914 138.793 17.4727 139.379 18.0352C139.965 18.5918 140.258 19.4883 140.258 20.7246V27H138.816V20.8213C138.816 20.0186 138.632 19.418 138.263 19.0195C137.899 18.6211 137.34 18.4219 136.584 18.4219C135.518 18.4219 134.768 18.7236 134.334 19.3271C133.9 19.9307 133.684 20.8066 133.684 21.9551V27H132.225V17.3672H133.402L133.622 18.7559H133.701C133.906 18.416 134.167 18.1318 134.483 17.9033C134.8 17.6689 135.154 17.4932 135.547 17.376C135.939 17.2529 136.353 17.1914 136.786 17.1914ZM149.495 24.3633C149.495 24.9785 149.34 25.4971 149.029 25.9189C148.725 26.335 148.285 26.6484 147.711 26.8594C147.143 27.0703 146.463 27.1758 145.672 27.1758C144.998 27.1758 144.415 27.123 143.923 27.0176C143.431 26.9121 143 26.7627 142.631 26.5693V25.2246C143.023 25.418 143.492 25.5938 144.037 25.752C144.582 25.9102 145.139 25.9893 145.707 25.9893C146.539 25.9893 147.143 25.8545 147.518 25.585C147.893 25.3154 148.08 24.9492 148.08 24.4863C148.08 24.2227 148.004 23.9912 147.852 23.792C147.705 23.5869 147.456 23.3906 147.104 23.2031C146.753 23.0098 146.267 22.7988 145.646 22.5703C145.03 22.3359 144.497 22.1045 144.046 21.876C143.601 21.6416 143.255 21.3574 143.009 21.0234C142.769 20.6895 142.648 20.2559 142.648 19.7227C142.648 18.9082 142.977 18.2842 143.633 17.8506C144.295 17.4111 145.162 17.1914 146.234 17.1914C146.814 17.1914 147.356 17.25 147.86 17.3672C148.37 17.4785 148.845 17.6309 149.284 17.8242L148.792 18.9932C148.394 18.8232 147.969 18.6797 147.518 18.5625C147.066 18.4453 146.606 18.3867 146.138 18.3867C145.464 18.3867 144.945 18.498 144.582 18.7207C144.225 18.9434 144.046 19.248 144.046 19.6348C144.046 19.9336 144.128 20.1797 144.292 20.373C144.462 20.5664 144.731 20.748 145.101 20.918C145.47 21.0879 145.956 21.2871 146.56 21.5156C147.163 21.7383 147.685 21.9697 148.124 22.21C148.563 22.4443 148.9 22.7314 149.135 23.0713C149.375 23.4053 149.495 23.8359 149.495 24.3633Z" fill="#E6E6E6"/>
<defs>
<clipPath id="clip0_307_3519">
<rect width="14" height="20" fill="white" transform="translate(64.5 10)"/>
</clipPath>
</defs>
</svg>
