<svg width="213" height="40" viewBox="0 0 213 40" fill="none" xmlns="http://www.w3.org/2000/svg">
<rect width="213" height="40" rx="20" fill="black"/>
<g clip-path="url(#clip0_307_3484)">
<path d="M84.9007 25.0283C85.0832 24.6375 85.1665 24.0908 85.1665 23.3333C85.1665 20.6275 83.9198 19.0667 82.919 17.8125C82.3123 17.0525 81.8332 16.4525 81.8332 15.8333L81.834 15.6392C81.8407 14.4892 81.854 12.095 80.5823 10.8158C80.044 10.2742 79.3432 10 78.4998 10C76.7498 10 75.5832 10.85 75.5832 15C75.5832 16.1417 75.1023 17.0775 74.594 18.0683C74.3707 18.5017 74.1407 18.9517 73.9473 19.4267C73.5623 20.3725 72.6665 22.6892 72.6665 23.75C72.6665 23.8173 72.6828 23.8837 72.714 23.9433L75.664 29.5675C75.6998 29.6342 75.7531 29.6899 75.8181 29.7286C75.8831 29.7674 75.9575 29.7877 76.0332 29.7875C76.0925 29.7871 76.1511 29.7743 76.2053 29.7499C76.2594 29.7255 76.3078 29.6901 76.3473 29.6458C76.5323 29.4408 77.7598 29.1667 78.4998 29.1667H81.3265C81.4352 29.1667 81.5395 29.1242 81.6173 29.0483L85.0407 25.715C85.0906 25.6663 85.1275 25.6059 85.148 25.5392C85.1685 25.4725 85.172 25.4018 85.158 25.3335C85.1441 25.2651 85.1132 25.2014 85.0683 25.1481C85.0233 25.0948 84.9657 25.0536 84.9007 25.0283Z" fill="#1A1A1A"/>
<path opacity="0.2" d="M74.594 18.2767C75.1023 17.2858 75.5832 16.35 75.5832 15.2083C75.5832 11.0583 76.7498 10.2083 78.4998 10.2083C79.3432 10.2083 80.044 10.4833 80.5823 11.0242C81.694 12.1417 81.824 14.1117 81.834 15.3575C81.8348 14.1358 81.7615 12.0025 80.5823 10.8158C80.044 10.2742 79.3432 10 78.4998 10C76.7498 10 75.5832 10.85 75.5832 15C75.5832 16.1417 75.1023 17.0775 74.594 18.0683C74.3707 18.5017 74.1407 18.9517 73.9473 19.4267C73.5623 20.3725 72.6665 22.6892 72.6665 23.75C72.6665 23.7692 72.6773 23.7858 72.6798 23.8042C72.7507 22.6908 73.5782 20.5408 73.9465 19.635C74.1407 19.16 74.3715 18.71 74.594 18.2767Z" fill="white"/>
<path d="M85.0484 25.3334C85.0968 25.3854 85.1307 25.4491 85.1467 25.5184C85.1657 25.4499 85.1667 25.3777 85.1494 25.3087C85.1322 25.2398 85.0974 25.1765 85.0484 25.125C85.0234 25.1 84.9917 25.0859 84.9625 25.0684C84.9417 25.1242 84.9242 25.185 84.9009 25.235C84.9565 25.2568 85.0068 25.2904 85.0484 25.3334Z" fill="#0099D8"/>
<path opacity="0.2" d="M81.833 16.0421C81.833 16.6612 82.3122 17.2612 82.9188 18.0212C83.9105 19.2637 85.1397 20.8112 85.1622 23.4712C85.1622 23.4237 85.1663 23.3829 85.1663 23.3337C85.1663 20.6279 83.9197 19.0671 82.9188 17.8129C82.3138 17.0546 81.8355 16.4562 81.8338 15.8379V15.8479L81.833 16.0421Z" fill="white"/>
<path d="M81.833 15.8324L81.8338 15.8366C81.8347 15.6941 81.8355 15.5333 81.8338 15.3574V15.6383L81.833 15.8324Z" fill="#0099D8"/>
<path d="M81.9416 24.0102C81.9307 21.981 81.6557 19.6985 80.0524 16.4219C79.2591 16.9585 77.8024 17.3827 77.6274 17.3827C77.3116 17.3827 76.6232 17.1577 76.1174 16.711C75.9091 17.3244 75.6207 17.8927 75.3357 18.4494C75.1112 18.8706 74.9054 19.3016 74.7191 19.741C74.2157 20.9777 73.6407 22.6077 73.5249 23.4727C73.8774 23.7077 74.1224 24.216 74.3941 24.7835C74.6757 25.3719 74.9941 26.0394 75.4049 26.3252C76.1557 26.8485 76.5457 27.5944 76.6474 28.2719C76.9332 28.301 77.2941 28.3252 77.7032 28.3252C78.7199 28.3252 80.0982 28.1185 81.1174 27.5002C81.1749 26.3977 81.3691 24.6302 81.9416 24.0102Z" fill="white"/>
<path d="M85.1625 23.4707C85.1525 24.154 85.0709 24.664 84.9009 25.029C84.9234 25.0374 84.9417 25.0565 84.9625 25.0699C85.0984 24.694 85.1667 24.2015 85.1667 23.5424C85.1667 23.5174 85.1625 23.4957 85.1625 23.4707Z" fill="#0099D8"/>
<path opacity="0.1" d="M76.6475 28.271C76.9333 28.3002 77.2941 28.3243 77.7033 28.3243C78.72 28.3243 80.0983 28.1177 81.1175 27.4993V27.291C80.0983 27.9093 78.72 28.116 77.7033 28.116C77.2941 28.116 76.87 28.0877 76.585 28.0593" fill="black"/>
<path opacity="0.3" d="M81.6198 28.8399C81.542 28.9157 81.4376 28.9582 81.3289 28.9582H78.5023C77.7623 28.9582 76.5356 29.2315 76.3498 29.4382C76.3044 29.4885 76.2477 29.5272 76.1844 29.5511C76.121 29.575 76.0529 29.5834 75.9856 29.5757C75.9188 29.568 75.8548 29.5443 75.799 29.5066C75.7433 29.4689 75.6975 29.4183 75.6656 29.359L72.7164 23.7349C72.6939 23.6924 72.6889 23.6432 72.6831 23.5957C72.6789 23.6457 72.6689 23.704 72.6689 23.7499C72.6689 23.8172 72.6852 23.8835 72.7164 23.9432L75.6664 29.5674C75.7023 29.6341 75.7555 29.6898 75.8205 29.7285C75.8856 29.7673 75.9599 29.7876 76.0356 29.7874C76.095 29.787 76.1536 29.7742 76.2077 29.7498C76.2618 29.7254 76.3102 29.6899 76.3498 29.6457C76.5348 29.4399 77.7623 29.1665 78.5023 29.1665H81.3289C81.4376 29.1665 81.542 29.1241 81.6198 29.0482L85.0431 25.7149C85.0952 25.6631 85.1325 25.5983 85.1511 25.5272C85.1697 25.4561 85.169 25.3814 85.1489 25.3107C85.1327 25.3846 85.096 25.4524 85.0431 25.5065L81.6198 28.8399Z" fill="black"/>
<path d="M85.9382 25.8957C85.7657 25.7823 85.5873 25.6657 85.4615 25.539C85.3873 25.4657 85.4215 25.1248 85.439 24.9423C85.474 24.5907 85.5098 24.2273 85.2723 23.9673C85.206 23.8957 85.1249 23.8393 85.0347 23.8019C84.9446 23.7645 84.8474 23.747 84.7498 23.7507C84.5265 23.7507 84.364 23.9273 84.354 24.1498L84.3565 24.1673H82.6665C82.6665 24.0568 82.6226 23.9508 82.5445 23.8727C82.4663 23.7945 82.3603 23.7507 82.2498 23.7507C81.014 23.7507 80.9998 28.2882 80.9948 28.3873C80.9715 28.6357 80.9173 29.219 81.2907 29.629C81.5157 29.8757 81.8382 30.0007 82.2498 30.0007C83.3315 30.0007 83.8557 29.4432 84.3632 28.9048C84.4482 28.8132 84.5357 28.7207 84.6282 28.629C84.839 28.4173 85.2523 28.2665 85.6165 28.134C86.2148 27.9157 86.8332 27.6898 86.8332 27.084C86.8332 26.4832 86.3373 26.1573 85.9382 25.8957ZM75.4048 26.3257C74.994 26.0398 74.6757 25.3723 74.394 24.784C74.0223 24.0065 73.7007 23.334 73.0832 23.334C72.3032 23.334 72.1332 24.034 72.0415 24.4107C72.0165 24.5148 71.9782 24.6707 71.9748 24.689C71.9132 24.7273 71.6798 24.774 71.5265 24.804C71.0182 24.9048 70.1665 25.0732 70.1665 25.834C70.1665 26.0557 70.1998 26.2432 70.2357 26.439C70.2998 26.7857 70.3607 27.1132 70.1798 27.8132C70.1709 27.8472 70.1664 27.8822 70.1665 27.9173C70.1665 28.919 71.7223 29.049 72.6523 29.1257C72.8065 29.139 72.9357 29.149 73.0182 29.1623C73.1465 29.1823 73.4148 29.3065 73.674 29.4257C74.2298 29.6823 74.9215 30.0007 75.5832 30.0007C76.059 30.0007 76.4398 29.6923 76.6023 29.1782C76.854 28.3748 76.5207 27.1023 75.4048 26.3257Z" fill="#FDB515"/>
<path opacity="0.2" d="M71.4608 25.0123C71.62 24.9823 71.8608 24.9357 71.925 24.8973C71.9283 24.879 71.9683 24.7232 71.9941 24.619C72.0883 24.2432 72.265 23.5423 73.0716 23.5423C73.7108 23.5423 74.0433 24.2148 74.4283 24.9923C74.7191 25.5807 75.0483 26.2482 75.4733 26.534C75.8966 26.819 76.2083 27.1707 76.4241 27.5407C76.1993 27.0517 75.8473 26.6321 75.405 26.3257C74.9941 26.0398 74.6758 25.3723 74.3941 24.784C74.0225 24.0065 73.7008 23.334 73.0833 23.334C72.3033 23.334 72.1333 24.034 72.0416 24.4107C72.0166 24.5148 71.9783 24.6707 71.975 24.689C71.9133 24.7273 71.68 24.774 71.5266 24.804C71.085 24.8915 70.3858 25.0315 70.21 25.5648C70.485 25.2007 71.07 25.0873 71.4608 25.0123Z" fill="white"/>
<path d="M84.7499 22.9164C84.6739 22.9182 84.6 22.9413 84.5366 22.9831L81.7541 18.4306C81.4124 17.4745 81.0059 16.5429 80.5374 15.6422C80.4868 15.5439 80.3992 15.4697 80.2938 15.4359C80.1885 15.4022 80.0741 15.4116 79.9757 15.4622C79.8774 15.5128 79.8032 15.6005 79.7694 15.7058C79.7357 15.8111 79.7451 15.9256 79.7957 16.0239C81.6774 19.6797 81.8332 21.9614 81.8341 24.1431C81.8291 24.2306 81.7991 25.0114 82.2482 25.4856C82.4632 25.7131 82.7516 25.8331 83.0832 25.8331L83.2299 25.8339L83.3716 25.8347C83.7957 25.8347 84.2541 25.8022 84.6124 25.4472C84.9957 25.0672 85.1666 24.4147 85.1666 23.3331C85.1666 23.2226 85.1227 23.1166 85.0445 23.0384C84.9664 22.9603 84.8604 22.9164 84.7499 22.9164Z" fill="#1A1A1A"/>
<path opacity="0.3" d="M84.6121 25.2383C84.2538 25.5933 83.7955 25.6258 83.3721 25.6258L83.2305 25.6249L83.083 25.6241C82.7513 25.6241 82.463 25.5041 82.248 25.2766C81.9121 24.9216 81.8438 24.3949 81.8338 24.1158V24.1424C81.8288 24.2299 81.7988 25.0108 82.248 25.4849C82.463 25.7124 82.7513 25.8324 83.083 25.8324L83.2296 25.8333L83.3713 25.8341C83.7955 25.8341 84.2538 25.8016 84.6121 25.4466C84.9955 25.0666 85.1663 24.4141 85.1663 23.3324C85.1663 23.3191 85.1596 23.3074 85.158 23.2949C85.1396 24.2674 84.973 24.8799 84.6121 25.2383Z" fill="black"/>
<path d="M79.3333 12.534C78.85 12.534 78.5 13.0524 78.5 13.7665C78.5 14.4807 78.85 14.999 79.3333 14.999C79.8167 14.999 80.1667 14.4807 80.1667 13.7665C80.1667 13.0524 79.8167 12.5332 79.3333 12.5332V12.534Z" fill="white"/>
<path d="M79.3334 14.814C79.5424 14.814 79.7117 14.4827 79.7117 14.074C79.7117 13.6653 79.5424 13.334 79.3334 13.334C79.1245 13.334 78.9551 13.6653 78.9551 14.074C78.9551 14.4827 79.1245 14.814 79.3334 14.814Z" fill="black"/>
<path d="M76.8333 12.534C76.35 12.534 76 13.0524 76 13.7665C76 14.4807 76.35 14.999 76.8333 14.999C77.3167 14.999 77.6667 14.4807 77.6667 13.7665C77.6667 13.0524 77.3167 12.5332 76.8333 12.5332V12.534Z" fill="white"/>
<path d="M80.0014 16.4512C79.1989 16.9728 77.7989 17.382 77.6264 17.382C77.3114 17.382 76.623 17.157 76.1172 16.7103L81.768 22.3612C81.6347 20.7478 81.2105 18.9128 80.0014 16.4512Z" fill="url(#paint0_linear_307_3484)"/>
<path d="M76.8332 14.7857C77.038 14.7857 77.2041 14.4607 77.2041 14.0598C77.2041 13.659 77.038 13.334 76.8332 13.334C76.6284 13.334 76.4624 13.659 76.4624 14.0598C76.4624 14.4607 76.6284 14.7857 76.8332 14.7857Z" fill="black"/>
<path d="M78.1647 14.1743C78.1378 14.1689 78.1104 14.1662 78.083 14.166C77.1872 14.166 75.583 15.006 75.583 15.8327C75.583 16.6135 77.1588 17.4993 77.6663 17.4993C77.9122 17.4993 80.583 16.5718 80.583 15.8327C80.583 14.7427 78.7322 14.2877 78.1647 14.1743Z" fill="#FDB515"/>
<path d="M78.1647 14.1743C78.1378 14.1689 78.1104 14.1662 78.083 14.166C77.1872 14.166 75.583 15.006 75.583 15.8327C75.583 16.6135 77.1588 17.4993 77.6663 17.4993C77.9122 17.4993 80.583 16.5718 80.583 15.8327C80.583 14.7427 78.7322 14.2877 78.1647 14.1743Z" fill="#FDB515"/>
<path opacity="0.1" d="M85.6165 27.9257C85.2523 28.0591 84.839 28.2091 84.6282 28.4207C84.5365 28.5124 84.4482 28.6049 84.3632 28.6957C83.8557 29.2349 83.3315 29.7924 82.2498 29.7924C81.8382 29.7924 81.5157 29.6674 81.2907 29.4199C81.0457 29.1524 80.9907 28.8166 80.9848 28.5416C80.9665 28.8299 80.9765 29.2849 81.2907 29.6282C81.5157 29.8757 81.8382 30.0007 82.2498 30.0007C83.3315 30.0007 83.8557 29.4432 84.3632 28.9049C84.4482 28.8132 84.5357 28.7207 84.6282 28.6291C84.839 28.4174 85.2523 28.2666 85.6165 28.1341C86.2148 27.9157 86.8332 27.6899 86.8332 27.0841C86.8332 27.0541 86.819 27.0324 86.8165 27.0032C86.7332 27.5116 86.169 27.7232 85.6165 27.9257ZM76.6023 28.9699C76.4398 29.4849 76.059 29.7924 75.5832 29.7924C74.9215 29.7924 74.2298 29.4741 73.6748 29.2174C73.4148 29.0982 73.1465 28.9741 73.0182 28.9541C72.9348 28.9407 72.8065 28.9307 72.6515 28.9182C71.7515 28.8432 70.2765 28.7116 70.184 27.7932L70.1798 27.8132C70.1709 27.8472 70.1664 27.8822 70.1665 27.9174C70.1665 28.9191 71.7223 29.0491 72.6523 29.1257C72.8065 29.1391 72.9357 29.1491 73.0182 29.1624C73.1465 29.1824 73.4148 29.3066 73.674 29.4257C74.2298 29.6824 74.9215 30.0007 75.5832 30.0007C76.059 30.0007 76.4398 29.6924 76.6023 29.1782C76.6682 28.9682 76.6915 28.7249 76.6732 28.4682C76.669 28.6466 76.6498 28.8182 76.6023 28.9699ZM77.6582 17.2924C77.1907 17.2924 75.8482 16.5582 75.584 15.8291L75.5832 15.8341C75.5832 16.6149 77.159 17.5007 77.6665 17.5007C77.9123 17.5007 80.5832 16.5732 80.5832 15.8341C80.5832 15.8174 80.5748 15.8049 80.574 15.7891C80.1782 16.5016 77.8882 17.2924 77.6582 17.2924Z" fill="black"/>
<path d="M85.938 25.8944C85.7655 25.7811 85.5872 25.6644 85.4614 25.5378C85.3872 25.4644 85.4214 25.1236 85.4389 24.9411C85.4739 24.5894 85.5097 24.2261 85.2722 23.9661C85.2339 23.9281 85.1901 23.896 85.1422 23.8711C85.0897 24.6294 84.9255 25.1361 84.6122 25.4461C84.2539 25.8019 83.7955 25.8344 83.3722 25.8344L83.2305 25.8336L83.083 25.8328C82.7514 25.8328 82.463 25.7128 82.248 25.4853L85.098 28.3361C85.2647 28.2611 85.4455 28.1944 85.6164 28.1328C86.2147 27.9144 86.833 27.6886 86.833 27.0828C86.833 26.4819 86.3372 26.1561 85.938 25.8944Z" fill="url(#paint1_linear_307_3484)"/>
<path d="M85.9382 25.895C85.7657 25.7817 85.5873 25.665 85.4615 25.5383C85.3873 25.465 85.4215 25.1242 85.439 24.9417C85.474 24.59 85.5098 24.2267 85.2723 23.9667C85.2448 23.935 85.194 23.9042 85.1498 23.8733C85.1607 23.7067 85.1665 23.5275 85.1665 23.3333C85.1665 20.6275 83.9198 19.0667 82.919 17.8125C82.3123 17.0525 81.8332 16.4525 81.8332 15.8333L81.834 15.6392C81.8407 14.4892 81.854 12.095 80.5823 10.8158C80.044 10.2742 79.3432 10 78.4998 10C76.7498 10 75.5832 10.85 75.5832 15C75.5832 16.1417 75.1023 17.0775 74.594 18.0683C74.3707 18.5017 74.1407 18.9517 73.9473 19.4267C73.5973 20.285 72.8365 22.2592 72.6957 23.4125C72.2457 23.6025 72.1148 24.1083 72.0415 24.41C72.0165 24.5142 71.9782 24.67 71.9748 24.6883C71.9132 24.7267 71.6798 24.7733 71.5265 24.8033C71.0182 24.9042 70.1665 25.0725 70.1665 25.8333C70.1665 26.055 70.1998 26.2425 70.2357 26.4383C70.2998 26.785 70.3607 27.1125 70.1798 27.8125C70.1709 27.8465 70.1664 27.8815 70.1665 27.9167C70.1665 28.9183 71.7223 29.0483 72.6523 29.125C72.8065 29.1383 72.9357 29.1483 73.0182 29.1617C73.1465 29.1817 73.4148 29.3058 73.674 29.425C74.2298 29.6817 74.9215 30 75.5832 30C75.8682 30 76.1115 29.8792 76.3015 29.68C76.3157 29.6675 76.3348 29.6608 76.3473 29.6467C76.5323 29.44 77.7598 29.1667 78.4998 29.1667H81.0498C81.0965 29.3275 81.1623 29.4875 81.2907 29.6275C81.5157 29.875 81.8382 30 82.2498 30C83.3315 30 83.8557 29.4425 84.3632 28.9042C84.4482 28.8125 84.5357 28.72 84.6282 28.6283C84.839 28.4167 85.2523 28.2658 85.6165 28.1333C86.2148 27.915 86.8332 27.6892 86.8332 27.0833C86.8332 26.4825 86.3373 26.1567 85.9382 25.895Z" fill="url(#paint2_linear_307_3484)"/>
</g>
<path d="M102.529 27V14.1504H104.023V25.6641H109.728V27H102.529ZM113.173 17.3672V27H111.714V17.3672H113.173ZM112.461 13.7637C112.701 13.7637 112.906 13.8428 113.076 14.001C113.252 14.1533 113.34 14.3936 113.34 14.7217C113.34 15.0439 113.252 15.2842 113.076 15.4424C112.906 15.6006 112.701 15.6797 112.461 15.6797C112.209 15.6797 111.998 15.6006 111.828 15.4424C111.664 15.2842 111.582 15.0439 111.582 14.7217C111.582 14.3936 111.664 14.1533 111.828 14.001C111.998 13.8428 112.209 13.7637 112.461 13.7637ZM120.828 17.1914C121.971 17.1914 122.835 17.4727 123.421 18.0352C124.007 18.5918 124.3 19.4883 124.3 20.7246V27H122.858V20.8213C122.858 20.0186 122.674 19.418 122.305 19.0195C121.941 18.6211 121.382 18.4219 120.626 18.4219C119.56 18.4219 118.81 18.7236 118.376 19.3271C117.942 19.9307 117.726 20.8066 117.726 21.9551V27H116.267V17.3672H117.444L117.664 18.7559H117.743C117.948 18.416 118.209 18.1318 118.525 17.9033C118.842 17.6689 119.196 17.4932 119.589 17.376C119.981 17.2529 120.395 17.1914 120.828 17.1914ZM135.26 17.3672V27H134.064L133.854 25.6465H133.774C133.575 25.9805 133.317 26.2617 133.001 26.4902C132.685 26.7188 132.327 26.8887 131.929 27C131.536 27.1172 131.117 27.1758 130.672 27.1758C129.91 27.1758 129.271 27.0527 128.756 26.8066C128.24 26.5605 127.851 26.1797 127.587 25.6641C127.329 25.1484 127.2 24.4863 127.2 23.6777V17.3672H128.677V23.5723C128.677 24.375 128.858 24.9756 129.222 25.374C129.585 25.7666 130.139 25.9629 130.883 25.9629C131.598 25.9629 132.166 25.8281 132.588 25.5586C133.016 25.2891 133.323 24.8936 133.511 24.3721C133.698 23.8447 133.792 23.2002 133.792 22.4385V17.3672H135.26ZM140.639 22.0693L137.308 17.3672H138.978L141.518 21.0762L144.049 17.3672H145.701L142.37 22.0693L145.886 27H144.216L141.518 23.0713L138.802 27H137.149L140.639 22.0693Z" fill="#E6E6E6"/>
<defs>
<linearGradient id="paint0_linear_307_3484" x1="77.1522" y1="15.6745" x2="82.8039" y2="21.3253" gradientUnits="userSpaceOnUse">
<stop stop-opacity="0.1"/>
<stop offset="1" stop-opacity="0"/>
</linearGradient>
<linearGradient id="paint1_linear_307_3484" x1="83.3847" y1="24.3494" x2="86.6322" y2="27.5969" gradientUnits="userSpaceOnUse">
<stop stop-opacity="0.1"/>
<stop offset="1" stop-opacity="0"/>
</linearGradient>
<linearGradient id="paint2_linear_307_3484" x1="72.8707" y1="18.3833" x2="87.7382" y2="25.3158" gradientUnits="userSpaceOnUse">
<stop stop-color="white" stop-opacity="0.2"/>
<stop offset="1" stop-color="white" stop-opacity="0"/>
</linearGradient>
<clipPath id="clip0_307_3484">
<rect width="20" height="20" fill="white" transform="translate(68.5 10)"/>
</clipPath>
</defs>
</svg>
