<svg width="213" height="40" viewBox="0 0 213 40" fill="none" xmlns="http://www.w3.org/2000/svg">
<rect width="213" height="40" rx="20" fill="black"/>
<g clip-path="url(#clip0_307_3430)">
<path d="M60.8333 23.0007C60.6113 23.001 60.3928 22.9457 60.1977 22.8397C60.0026 22.7337 59.8372 22.5805 59.7167 22.394C59.5801 22.1839 59.5 21.9339 59.5 21.6673C59.5 20.9307 60.0967 20.334 60.8333 20.334C61.57 20.334 62.1667 20.9307 62.1667 21.6673C62.1667 22.404 61.57 23.0007 60.8333 23.0007Z" fill="#AAD3E2"/>
<path d="M60.8267 16.8372C60.1933 17.354 59.3833 17.6673 58.5 17.6673C58.06 17.6673 57.64 17.5907 57.2533 17.4507V17.4473C56.8566 17.3073 56.4933 17.0973 56.1733 16.8373C56.2567 15.8107 57.12 15.0007 58.1667 15.0007H58.8333C59.88 15.0007 60.7433 15.8107 60.8267 16.8372ZM59.8333 13.6673C59.8333 14.4037 59.2363 15.0007 58.5 15.0007C57.7637 15.0007 57.1667 14.4037 57.1667 13.6673C57.1667 12.931 57.7637 12.334 58.5 12.334C59.2363 12.334 59.8333 12.931 59.8333 13.6673Z" fill="#ED8C4A"/>
<path d="M58.5002 10.334C60.5268 10.334 62.1668 11.974 62.1668 14.0007C62.1668 15.144 61.6468 16.1641 60.8268 16.8372C60.7435 15.8107 59.8802 15.0007 58.8335 15.0007H58.5002C59.2368 15.0007 59.8335 14.404 59.8335 13.6673C59.8335 12.9307 59.2368 12.334 58.5002 12.334C57.7635 12.334 57.1668 12.9307 57.1668 13.6673C57.1668 14.404 57.7635 15.0007 58.5002 15.0007H58.1668C57.1201 15.0007 56.2568 15.8107 56.1735 16.8372C55.7202 16.464 55.3568 15.9841 55.1235 15.4339C54.9368 14.994 54.8335 14.5106 54.8335 14.0007C54.8335 13.554 54.9136 13.1273 55.0602 12.7341C55.5735 11.3307 56.9201 10.334 58.5002 10.334Z" fill="#F3F3FB"/>
<path d="M54.1668 29.6667C53.2801 29.6667 52.4668 29.3533 51.8335 28.8301C51.9201 27.8066 52.7835 27 53.8268 27H54.4935C55.5402 27 56.4035 27.81 56.4868 28.8366L56.4902 28.84C55.8568 29.3567 55.0501 29.6667 54.1668 29.6667Z" fill="#FFCA55"/>
<path d="M53.8267 27.0007C52.7833 27.0007 51.9199 27.8073 51.8333 28.8307C51.2267 28.3307 50.7866 27.6406 50.5999 26.8506C50.5334 26.5773 50.5 26.294 50.5 26.0007C50.5 24.924 50.9634 23.9573 51.7 23.2873C52.35 22.694 53.2167 22.334 54.1667 22.334C54.6066 22.334 55.0267 22.4107 55.4134 22.5507V22.554C56.1699 22.824 56.8101 23.3407 57.2401 24.0039C57.6167 24.5773 57.8333 25.264 57.8333 26.0007C57.8333 27.144 57.31 28.1673 56.4901 28.8407L56.4867 28.8372C56.4033 27.8107 55.54 27.0007 54.4933 27.0007H54.16C54.8967 27.0007 55.4933 26.404 55.4933 25.6673C55.4933 24.9307 54.8967 24.334 54.16 24.334C53.4233 24.334 52.8267 24.9307 52.8267 25.6673C52.8267 26.404 53.4233 27.0007 54.16 27.0007H53.8267Z" fill="#F3F3FB"/>
<path d="M55.4933 25.6673C55.4933 26.4037 54.8963 27.0007 54.16 27.0007C53.4237 27.0007 52.8267 26.4037 52.8267 25.6673C52.8267 24.931 53.4237 24.334 54.16 24.334C54.8963 24.334 55.4933 24.931 55.4933 25.6673Z" fill="#FFCA55"/>
<path d="M52.1668 10.334C52.9035 10.334 53.5002 10.9307 53.5002 11.6673C53.5002 11.8307 53.4702 11.9841 53.4168 12.1273C53.2302 12.6373 52.7402 13.0007 52.1668 13.0007C51.4302 13.0007 50.8335 12.404 50.8335 11.6673C50.8335 10.9307 51.4302 10.334 52.1668 10.334Z" fill="#AAD3E2"/>
<path d="M47.4998 22.3333C46.8532 22.3333 46.2466 22.1667 45.7199 21.8733C45.5231 21.7666 45.3399 21.64 45.1665 21.4968C45.2531 20.4733 46.1165 19.6667 47.1598 19.6667H47.8265C48.8732 19.6667 49.7365 20.4767 49.8198 21.5033L49.8233 21.5067C49.1898 22.0233 48.3831 22.3333 47.4998 22.3333ZM48.8265 18.3333C48.8265 19.0697 48.2295 19.6667 47.4932 19.6667C46.7568 19.6667 46.1598 19.0697 46.1598 18.3333C46.1598 17.597 46.7568 17 47.4932 17C48.2295 17 48.8265 17.597 48.8265 18.3333Z" fill="#64C1E2"/>
<path d="M47.1668 29.0007C46.4302 29.0007 45.8335 28.404 45.8335 27.6673C45.8335 26.9307 46.4302 26.334 47.1668 26.334C47.7969 26.334 48.3236 26.7707 48.4635 27.3573C48.4868 27.4574 48.5002 27.5607 48.5002 27.6673C48.5002 28.404 47.9035 29.0007 47.1668 29.0007Z" fill="#AAD3E2"/>
<path d="M47.1602 19.6667C46.1168 19.6667 45.2534 20.4733 45.1668 21.4967C44.3535 20.8234 43.8335 19.8066 43.8335 18.6667C43.8335 17.2033 44.6868 15.9433 45.9235 15.3533C46.4002 15.1267 46.9368 15 47.5002 15C49.0167 15 50.3169 15.9199 50.8768 17.2334C51.0635 17.6733 51.1668 18.1567 51.1668 18.6667C51.1668 19.7433 50.7035 20.71 49.9668 21.38C49.9201 21.4234 49.8735 21.4634 49.8236 21.5067L49.8202 21.5032C49.7368 20.4767 48.8735 19.6667 47.8268 19.6667H47.4935C48.2302 19.6667 48.8268 19.07 48.8268 18.3333C48.8268 17.5967 48.2302 17 47.4935 17C46.7568 17 46.1602 17.5967 46.1602 18.3333C46.1602 19.07 46.7568 19.6667 47.4935 19.6667H47.1602Z" fill="#F3F3FB"/>
<path d="M44.1668 23.334C44.4002 23.334 44.6235 23.394 44.8135 23.5039C45.2235 23.7307 45.5002 24.1673 45.5002 24.6673C45.5002 25.404 44.9035 26.0007 44.1668 26.0007C43.4302 26.0007 42.8335 25.404 42.8335 24.6673C42.8335 23.9307 43.4302 23.334 44.1668 23.334ZM44.1668 10.334C44.9035 10.334 45.5002 10.9307 45.5002 11.6673C45.5002 12.1973 45.1901 12.6574 44.7402 12.8673C44.5669 12.954 44.3701 13.0007 44.1668 13.0007C43.4302 13.0007 42.8335 12.404 42.8335 11.6673C42.8335 10.9307 43.4302 10.334 44.1668 10.334Z" fill="#AAD3E2"/>
<path d="M58.5 18C60.7058 18 62.5 16.2057 62.5 14C62.5 11.7943 60.7057 10 58.5 10C56.8983 10 55.5173 10.9484 54.8791 12.3114L53.808 11.916C53.8206 11.834 53.8333 11.752 53.8333 11.6667C53.8333 10.7477 53.0856 10 52.1667 10C51.2477 10 50.5 10.7477 50.5 11.6667C50.5 12.5856 51.2477 13.3333 52.1667 13.3333C52.7637 13.3333 53.2843 13.015 53.5786 12.542L54.648 12.9367C54.554 13.276 54.5 13.6313 54.5 14C54.5 14.4367 54.5726 14.856 54.7026 15.2497L51.0366 16.8034C50.3654 15.5343 49.033 14.6667 47.5 14.6667C47.0033 14.6667 46.5293 14.7621 46.09 14.928L45.168 12.9904C45.5696 12.6857 45.8333 12.2083 45.8333 11.6667C45.8333 10.7477 45.0856 10 44.1667 10C43.2477 10 42.5 10.7477 42.5 11.6667C42.5 12.5856 43.2477 13.3333 44.1667 13.3333C44.3053 13.3333 44.4383 13.3114 44.5674 13.279L45.4883 15.2147C44.3013 15.9093 43.5 17.1947 43.5 18.6667C43.5 20.0493 44.2054 21.2697 45.2748 21.9883L44.665 23.0843C44.5063 23.0343 44.3413 23 44.1667 23C43.2477 23 42.5 23.7477 42.5 24.6667C42.5 25.5856 43.2477 26.3333 44.1667 26.3333C45.0856 26.3333 45.8333 25.5856 45.8333 24.6667C45.8333 24.162 45.603 23.7144 45.2477 23.4087L45.8587 22.3104C46.36 22.5373 46.9147 22.6667 47.5 22.6667C48.4147 22.6667 49.256 22.3547 49.9307 21.8359L51.2427 23.2793C50.5773 23.994 50.1667 24.9488 50.1667 26C50.1667 26.204 50.187 26.4027 50.2163 26.5983L48.6727 26.9647C48.4071 26.3967 47.834 26 47.1667 26C46.2477 26 45.5 26.7477 45.5 27.6667C45.5 28.5856 46.2477 29.3333 47.1667 29.3333C48.0856 29.3333 48.8333 28.5856 48.8333 27.6667C48.8333 27.6483 48.8283 27.631 48.828 27.6126L50.3687 27.2474C50.894 28.8435 52.3967 30 54.1667 30C56.3724 30 58.1667 28.2057 58.1667 26C58.1667 25.3161 57.9937 24.672 57.6896 24.1087L59.6476 22.8356C59.9504 23.1423 60.3696 23.3333 60.8333 23.3333C61.7523 23.3333 62.5 22.5856 62.5 21.6667C62.5 20.7477 61.7523 20 60.8333 20C59.9144 20 59.1667 20.7477 59.1667 21.6667C59.1667 21.882 59.211 22.0866 59.2856 22.2757L57.3231 23.5516C56.9283 23.0437 56.4174 22.6379 55.8333 22.3683L57.4603 17.8581C57.7923 17.9476 58.14 18 58.5 18ZM52.1667 12.6667C51.6154 12.6667 51.1667 12.2179 51.1667 11.6667C51.1667 11.1154 51.6154 10.6667 52.1667 10.6667C52.7179 10.6667 53.1667 11.1154 53.1667 11.6667C53.1667 12.2179 52.7179 12.6667 52.1667 12.6667ZM43.1667 11.6667C43.1667 11.1154 43.6154 10.6667 44.1667 10.6667C44.7179 10.6667 45.1667 11.1154 45.1667 11.6667C45.1667 12.2179 44.7179 12.6667 44.1667 12.6667C43.6154 12.6667 43.1667 12.2179 43.1667 11.6667ZM44.1667 25.6667C43.6154 25.6667 43.1667 25.2179 43.1667 24.6667C43.1667 24.1154 43.6154 23.6667 44.1667 23.6667C44.7179 23.6667 45.1667 24.1154 45.1667 24.6667C45.1667 25.2179 44.7179 25.6667 44.1667 25.6667ZM47.1667 28.6667C46.6154 28.6667 46.1667 28.2179 46.1667 27.6667C46.1667 27.1154 46.6154 26.6667 47.1667 26.6667C47.7179 26.6667 48.1667 27.1154 48.1667 27.6667C48.1667 28.2179 47.7179 28.6667 47.1667 28.6667ZM60.8333 20.6667C61.3846 20.6667 61.8333 21.1154 61.8333 21.6667C61.8333 22.2179 61.3846 22.6667 60.8333 22.6667C60.2821 22.6667 59.8333 22.2179 59.8333 21.6667C59.8333 21.1154 60.2821 20.6667 60.8333 20.6667ZM56.537 16.688C56.6857 15.917 57.3654 15.3333 58.1667 15.3333H58.8333C59.6346 15.3333 60.3143 15.917 60.463 16.688C59.9117 17.0916 59.2344 17.3333 58.5 17.3333C57.7656 17.3333 57.0884 17.0917 56.537 16.688ZM58.5 14.6667C57.9488 14.6667 57.5 14.2179 57.5 13.6667C57.5 13.1154 57.9488 12.6667 58.5 12.6667C59.0513 12.6667 59.5 13.1154 59.5 13.6667C59.5 14.2179 59.0513 14.6667 58.5 14.6667ZM58.5 10.6667C60.338 10.6667 61.8333 12.162 61.8333 14C61.8333 14.8333 61.5236 15.5947 61.016 16.1797C60.7824 15.5646 60.2954 15.0738 59.6886 14.8314C59.9838 14.5306 60.1667 14.12 60.1667 13.6667C60.1667 12.7477 59.419 12 58.5 12C57.581 12 56.8333 12.7477 56.8333 13.6667C56.8333 14.12 57.0163 14.5306 57.3114 14.8314C56.7046 15.0738 56.2176 15.5646 55.984 16.1797C55.4764 15.5947 55.1667 14.8333 55.1667 14C55.1667 12.162 56.662 10.6667 58.5 10.6667ZM44.1667 18.6667C44.1667 16.8286 45.662 15.3333 47.5 15.3333C49.338 15.3333 50.8333 16.8286 50.8333 18.6667C50.8333 19.5026 50.5217 20.266 50.0114 20.8517C49.7787 20.2344 49.2907 19.741 48.6823 19.498C48.977 19.1973 49.16 18.7866 49.16 18.3333C49.16 17.4144 48.4123 16.6667 47.4933 16.6667C46.5744 16.6667 45.8267 17.4144 45.8267 18.3333C45.8267 18.7866 46.0096 19.1973 46.3047 19.498C45.6997 19.7393 45.2134 20.2283 44.979 20.841C44.4743 20.2567 44.1667 19.4978 44.1667 18.6667ZM46.4933 18.3333C46.4933 17.7821 46.9421 17.3333 47.4933 17.3333C48.0446 17.3333 48.4933 17.7821 48.4933 18.3333C48.4933 18.8846 48.0446 19.3333 47.4933 19.3333C46.9421 19.3333 46.4933 18.8846 46.4933 18.3333ZM45.5314 21.3503C45.6816 20.5814 46.3603 20 47.16 20H47.8267C48.6294 20 49.3104 20.5856 49.457 21.359C48.9067 21.7603 48.2316 22 47.5 22C46.763 22 46.0837 21.7567 45.5314 21.3503ZM52.1981 28.6836C52.3483 27.9147 53.027 27.3333 53.8267 27.3333H54.4933C55.296 27.3333 55.9771 27.919 56.1237 28.6924C55.5734 29.0936 54.8983 29.3333 54.1667 29.3333C53.4297 29.3333 52.7503 29.09 52.1981 28.6836ZM54.16 26.6667C53.6088 26.6667 53.16 26.2179 53.16 25.6667C53.16 25.1154 53.6088 24.6667 54.16 24.6667C54.7113 24.6667 55.16 25.1154 55.16 25.6667C55.16 26.2179 54.7113 26.6667 54.16 26.6667ZM57.5 26C57.5 26.836 57.1883 27.5993 56.678 28.185C56.4453 27.5677 55.9574 27.0744 55.349 26.8314C55.6437 26.5306 55.8267 26.12 55.8267 25.6667C55.8267 24.7477 55.079 24 54.16 24C53.241 24 52.4933 24.7477 52.4933 25.6667C52.4933 26.12 52.6763 26.5306 52.9713 26.8314C52.3664 27.0726 51.8801 27.5617 51.6457 28.1743C51.141 27.59 50.8333 26.8311 50.8333 26C50.8333 24.162 52.3286 22.6667 54.1667 22.6667C56.0047 22.6667 57.5 24.162 57.5 26ZM55.2064 22.1419C54.8743 22.0524 54.5267 22 54.1667 22C53.252 22 52.4106 22.312 51.736 22.8307L50.424 21.3874C51.0894 20.6727 51.5 19.7179 51.5 18.6667C51.5 18.23 51.4274 17.8107 51.2974 17.417L54.9634 15.8633C55.374 16.6397 56.033 17.2627 56.8337 17.6317L55.2064 22.1419Z" fill="#0D2C33"/>
</g>
<path d="M86.7793 27H85.0566L78.0518 16.207H77.9814C77.999 16.4941 78.0195 16.8223 78.043 17.1914C78.0664 17.5547 78.084 17.9443 78.0957 18.3604C78.1133 18.7705 78.1221 19.1895 78.1221 19.6172V27H76.7334V14.1504H78.4473L85.4258 24.9082H85.4873C85.4756 24.7031 85.4609 24.4131 85.4434 24.0381C85.4258 23.6572 85.4082 23.25 85.3906 22.8164C85.3789 22.377 85.373 21.9697 85.373 21.5947V14.1504H86.7793V27ZM93.7754 17.1914C94.5957 17.1914 95.2988 17.373 95.8848 17.7363C96.4707 18.0996 96.9189 18.6094 97.2295 19.2656C97.54 19.916 97.6953 20.6777 97.6953 21.5508V22.4561H91.042C91.0596 23.5869 91.3408 24.4482 91.8857 25.04C92.4307 25.6318 93.1982 25.9277 94.1885 25.9277C94.7979 25.9277 95.3369 25.8721 95.8057 25.7607C96.2744 25.6494 96.7607 25.4854 97.2646 25.2686V26.5518C96.7783 26.7686 96.2949 26.9268 95.8145 27.0264C95.3398 27.126 94.7773 27.1758 94.127 27.1758C93.2012 27.1758 92.3926 26.9883 91.7012 26.6133C91.0156 26.2324 90.4824 25.6758 90.1016 24.9434C89.7207 24.2109 89.5303 23.3145 89.5303 22.2539C89.5303 21.2168 89.7031 20.3203 90.0488 19.5645C90.4004 18.8027 90.8926 18.2168 91.5254 17.8066C92.1641 17.3965 92.9141 17.1914 93.7754 17.1914ZM93.7578 18.3867C92.9785 18.3867 92.3574 18.6416 91.8945 19.1514C91.4316 19.6611 91.1562 20.373 91.0684 21.2871H96.166C96.1602 20.7129 96.0693 20.209 95.8936 19.7754C95.7236 19.3359 95.4629 18.9961 95.1113 18.7559C94.7598 18.5098 94.3086 18.3867 93.7578 18.3867ZM103.285 25.9805C103.525 25.9805 103.771 25.96 104.023 25.9189C104.275 25.8779 104.48 25.8281 104.639 25.7695V26.9033C104.469 26.9795 104.231 27.0439 103.927 27.0967C103.628 27.1494 103.335 27.1758 103.048 27.1758C102.538 27.1758 102.075 27.0879 101.659 26.9121C101.243 26.7305 100.909 26.4258 100.657 25.998C100.411 25.5703 100.288 24.9785 100.288 24.2227V18.5098H98.917V17.7979L100.297 17.2266L100.877 15.1348H101.756V17.3672H104.577V18.5098H101.756V24.1787C101.756 24.7822 101.894 25.2334 102.169 25.5322C102.45 25.8311 102.822 25.9805 103.285 25.9805ZM114.43 26.9824L112.716 21.375C112.64 21.1348 112.566 20.9004 112.496 20.6719C112.432 20.4375 112.37 20.2148 112.312 20.0039C112.259 19.7871 112.209 19.5879 112.162 19.4062C112.121 19.2188 112.086 19.0576 112.057 18.9229H111.995C111.972 19.0576 111.939 19.2188 111.898 19.4062C111.857 19.5879 111.808 19.7871 111.749 20.0039C111.696 20.2207 111.638 20.4492 111.573 20.6895C111.509 20.9238 111.436 21.1611 111.354 21.4014L109.561 26.9824H107.917L105.263 17.3496H106.774L108.163 22.667C108.257 23.0186 108.345 23.3672 108.427 23.7129C108.515 24.0527 108.588 24.375 108.646 24.6797C108.711 24.9785 108.758 25.2393 108.787 25.4619H108.857C108.893 25.3154 108.931 25.1396 108.972 24.9346C109.019 24.7295 109.068 24.5127 109.121 24.2842C109.18 24.0498 109.241 23.8184 109.306 23.5898C109.37 23.3555 109.435 23.1357 109.499 22.9307L111.274 17.3496H112.848L114.562 22.9219C114.649 23.2031 114.734 23.4961 114.816 23.8008C114.904 24.1055 114.983 24.4014 115.054 24.6885C115.124 24.9697 115.174 25.2217 115.203 25.4443H115.273C115.297 25.2451 115.341 24.999 115.405 24.7061C115.47 24.4131 115.543 24.0908 115.625 23.7393C115.713 23.3877 115.804 23.0303 115.897 22.667L117.304 17.3496H118.789L116.126 26.9824H114.43ZM128.853 22.166C128.853 22.957 128.75 23.6631 128.545 24.2842C128.34 24.9053 128.044 25.4297 127.657 25.8574C127.271 26.2852 126.802 26.6133 126.251 26.8418C125.706 27.0645 125.088 27.1758 124.396 27.1758C123.752 27.1758 123.16 27.0645 122.621 26.8418C122.088 26.6133 121.625 26.2852 121.232 25.8574C120.846 25.4297 120.544 24.9053 120.327 24.2842C120.116 23.6631 120.011 22.957 120.011 22.166C120.011 21.1113 120.189 20.2148 120.547 19.4766C120.904 18.7324 121.414 18.167 122.076 17.7803C122.744 17.3877 123.538 17.1914 124.458 17.1914C125.337 17.1914 126.104 17.3877 126.761 17.7803C127.423 18.1729 127.936 18.7412 128.299 19.4854C128.668 20.2236 128.853 21.1172 128.853 22.166ZM121.522 22.166C121.522 22.9395 121.625 23.6104 121.83 24.1787C122.035 24.7471 122.352 25.1865 122.779 25.4971C123.207 25.8076 123.758 25.9629 124.432 25.9629C125.1 25.9629 125.647 25.8076 126.075 25.4971C126.509 25.1865 126.828 24.7471 127.033 24.1787C127.238 23.6104 127.341 22.9395 127.341 22.166C127.341 21.3984 127.238 20.7363 127.033 20.1797C126.828 19.6172 126.512 19.1836 126.084 18.8789C125.656 18.5742 125.103 18.4219 124.423 18.4219C123.421 18.4219 122.686 18.7529 122.217 19.415C121.754 20.0771 121.522 20.9941 121.522 22.166ZM135.752 17.1914C135.945 17.1914 136.147 17.2031 136.358 17.2266C136.569 17.2441 136.757 17.2705 136.921 17.3057L136.736 18.6592C136.578 18.6182 136.402 18.5859 136.209 18.5625C136.016 18.5391 135.834 18.5273 135.664 18.5273C135.277 18.5273 134.911 18.6064 134.565 18.7646C134.226 18.917 133.927 19.1396 133.669 19.4326C133.411 19.7197 133.209 20.0684 133.062 20.4785C132.916 20.8828 132.843 21.334 132.843 21.832V27H131.375V17.3672H132.588L132.746 19.1426H132.808C133.007 18.7852 133.247 18.46 133.528 18.167C133.81 17.8682 134.135 17.6309 134.504 17.4551C134.879 17.2793 135.295 17.1914 135.752 17.1914ZM140.19 13.3242V20.4258C140.19 20.6602 140.182 20.9473 140.164 21.2871C140.146 21.6211 140.132 21.917 140.12 22.1748H140.182C140.305 22.0225 140.483 21.7969 140.718 21.498C140.958 21.1992 141.16 20.959 141.324 20.7773L144.523 17.3672H146.237L142.361 21.4805L146.519 27H144.761L141.359 22.4385L140.19 23.5107V27H138.74V13.3242H140.19ZM149.656 17.3672V27H148.197V17.3672H149.656ZM148.944 13.7637C149.185 13.7637 149.39 13.8428 149.56 14.001C149.735 14.1533 149.823 14.3936 149.823 14.7217C149.823 15.0439 149.735 15.2842 149.56 15.4424C149.39 15.6006 149.185 15.6797 148.944 15.6797C148.692 15.6797 148.481 15.6006 148.312 15.4424C148.147 15.2842 148.065 15.0439 148.065 14.7217C148.065 14.3936 148.147 14.1533 148.312 14.001C148.481 13.8428 148.692 13.7637 148.944 13.7637ZM157.312 17.1914C158.454 17.1914 159.318 17.4727 159.904 18.0352C160.49 18.5918 160.783 19.4883 160.783 20.7246V27H159.342V20.8213C159.342 20.0186 159.157 19.418 158.788 19.0195C158.425 18.6211 157.865 18.4219 157.109 18.4219C156.043 18.4219 155.293 18.7236 154.859 19.3271C154.426 19.9307 154.209 20.8066 154.209 21.9551V27H152.75V17.3672H153.928L154.147 18.7559H154.227C154.432 18.416 154.692 18.1318 155.009 17.9033C155.325 17.6689 155.68 17.4932 156.072 17.376C156.465 17.2529 156.878 17.1914 157.312 17.1914ZM166.479 31.3242C165.213 31.3242 164.237 31.0869 163.552 30.6123C162.866 30.1436 162.523 29.4844 162.523 28.6348C162.523 28.0312 162.714 27.5156 163.095 27.0879C163.481 26.6602 164.015 26.376 164.694 26.2354C164.442 26.1182 164.226 25.9424 164.044 25.708C163.868 25.4736 163.78 25.2041 163.78 24.8994C163.78 24.5479 163.877 24.2402 164.07 23.9766C164.27 23.707 164.571 23.4492 164.976 23.2031C164.472 22.998 164.062 22.6523 163.745 22.166C163.435 21.6738 163.279 21.1025 163.279 20.4521C163.279 19.7607 163.423 19.1719 163.71 18.6855C163.997 18.1934 164.413 17.8184 164.958 17.5605C165.503 17.3027 166.162 17.1738 166.936 17.1738C167.105 17.1738 167.275 17.1826 167.445 17.2002C167.621 17.2119 167.788 17.2324 167.946 17.2617C168.104 17.2852 168.242 17.3145 168.359 17.3496H171.664V18.29L169.889 18.5098C170.064 18.7383 170.211 19.0137 170.328 19.3359C170.445 19.6582 170.504 20.0156 170.504 20.4082C170.504 21.3691 170.179 22.1338 169.528 22.7021C168.878 23.2646 167.984 23.5459 166.848 23.5459C166.578 23.5459 166.303 23.5225 166.021 23.4756C165.734 23.6338 165.515 23.8096 165.362 24.0029C165.216 24.1963 165.143 24.4189 165.143 24.6709C165.143 24.8584 165.198 25.0078 165.31 25.1191C165.427 25.2305 165.594 25.3125 165.811 25.3652C166.027 25.4121 166.288 25.4355 166.593 25.4355H168.289C169.338 25.4355 170.141 25.6553 170.697 26.0947C171.26 26.5342 171.541 27.1758 171.541 28.0195C171.541 29.0859 171.107 29.9033 170.24 30.4717C169.373 31.04 168.119 31.3242 166.479 31.3242ZM166.522 30.1816C167.319 30.1816 167.979 30.0996 168.5 29.9355C169.027 29.7773 169.42 29.5459 169.678 29.2412C169.941 28.9424 170.073 28.585 170.073 28.1689C170.073 27.7822 169.985 27.4893 169.81 27.29C169.634 27.0967 169.376 26.9678 169.036 26.9033C168.696 26.833 168.28 26.7979 167.788 26.7979H166.118C165.685 26.7979 165.307 26.8652 164.984 27C164.662 27.1348 164.413 27.334 164.237 27.5977C164.067 27.8613 163.982 28.1895 163.982 28.582C163.982 29.1035 164.202 29.499 164.642 29.7686C165.081 30.0439 165.708 30.1816 166.522 30.1816ZM166.9 22.4824C167.598 22.4824 168.122 22.3066 168.474 21.9551C168.825 21.6035 169.001 21.0908 169.001 20.417C169.001 19.6963 168.822 19.1572 168.465 18.7998C168.107 18.4365 167.58 18.2549 166.883 18.2549C166.215 18.2549 165.699 18.4424 165.336 18.8174C164.979 19.1865 164.8 19.7285 164.8 20.4434C164.8 21.0996 164.981 21.6035 165.345 21.9551C165.708 22.3066 166.227 22.4824 166.9 22.4824Z" fill="#E6E6E6"/>
<defs>
<clipPath id="clip0_307_3430">
<rect width="20" height="20" fill="white" transform="translate(42.5 10)"/>
</clipPath>
</defs>
</svg>
