<svg width="213" height="40" viewBox="0 0 213 40" fill="none" xmlns="http://www.w3.org/2000/svg">
<rect width="213" height="40" rx="20" fill="black"/>
<path d="M82.1665 29.332H93.4998C93.5882 29.332 93.673 29.2969 93.7355 29.2344C93.7981 29.1719 93.8332 29.0871 93.8332 28.9987V21.6654C93.8332 21.577 93.7981 21.4922 93.7355 21.4297C93.673 21.3671 93.5882 21.332 93.4998 21.332H82.1665C82.0781 21.332 81.9933 21.3671 81.9308 21.4297C81.8683 21.4922 81.8332 21.577 81.8332 21.6654V28.9987C81.8332 29.0871 81.8683 29.1719 81.9308 29.2344C81.9933 29.2969 82.0781 29.332 82.1665 29.332ZM89.8332 23.332C89.8332 23.2436 89.8683 23.1588 89.9308 23.0963C89.9933 23.0338 90.0781 22.9987 90.1665 22.9987C90.2549 22.9987 90.3397 23.0338 90.4022 23.0963C90.4647 23.1588 90.4998 23.2436 90.4998 23.332V26.9987H92.1665C92.2549 26.9987 92.3397 27.0338 92.4022 27.0963C92.4647 27.1588 92.4998 27.2436 92.4998 27.332C92.4998 27.4204 92.4647 27.5052 92.4022 27.5677C92.3397 27.6302 92.2549 27.6654 92.1665 27.6654H90.1665C90.0781 27.6654 89.9933 27.6302 89.9308 27.5677C89.8683 27.5052 89.8332 27.4204 89.8332 27.332V23.332ZM86.4998 24.332C86.4998 23.9784 86.6403 23.6393 86.8904 23.3892C87.1404 23.1392 87.4795 22.9987 87.8332 22.9987C88.1868 22.9987 88.5259 23.1392 88.776 23.3892C89.026 23.6393 89.1665 23.9784 89.1665 24.332V26.332C89.1653 26.5693 89.1 26.8018 88.9775 27.005L89.0688 27.0964C89.1007 27.1271 89.1261 27.1639 89.1435 27.2046C89.161 27.2452 89.1702 27.289 89.1706 27.3332C89.171 27.3775 89.1625 27.4214 89.1458 27.4623C89.129 27.5033 89.1043 27.5405 89.073 27.5718C89.0417 27.6031 89.0045 27.6279 88.9635 27.6446C88.9225 27.6614 88.8786 27.6698 88.8344 27.6694C88.7901 27.6691 88.7464 27.6599 88.7057 27.6424C88.665 27.6249 88.6283 27.5995 88.5975 27.5677L88.5062 27.4764C88.303 27.5989 88.0704 27.6642 87.8332 27.6654C87.4795 27.6654 87.1404 27.5249 86.8904 27.2748C86.6403 27.0248 86.4998 26.6857 86.4998 26.332V24.332ZM84.4998 25.6654C84.2361 25.6654 83.9783 25.5872 83.7591 25.4407C83.5398 25.2941 83.3689 25.0859 83.268 24.8423C83.1671 24.5986 83.1407 24.3306 83.1921 24.0719C83.2436 23.8133 83.3706 23.5757 83.557 23.3892C83.7435 23.2028 83.9811 23.0758 84.2397 23.0243C84.4984 22.9729 84.7664 22.9993 85.0101 23.1002C85.2537 23.2011 85.462 23.372 85.6085 23.5913C85.755 23.8105 85.8332 24.0683 85.8332 24.332C85.8332 24.4204 85.7981 24.5052 85.7355 24.5677C85.673 24.6302 85.5882 24.6654 85.4998 24.6654C85.4114 24.6654 85.3266 24.6302 85.2641 24.5677C85.2016 24.5052 85.1665 24.4204 85.1665 24.332C85.1665 24.2002 85.1274 24.0713 85.0542 23.9617C84.9809 23.852 84.8768 23.7666 84.755 23.7161C84.6331 23.6657 84.4991 23.6525 84.3698 23.6782C84.2405 23.7039 84.1217 23.7674 84.0284 23.8606C83.9352 23.9539 83.8717 24.0726 83.846 24.202C83.8203 24.3313 83.8335 24.4653 83.8839 24.5872C83.9344 24.709 84.0198 24.8131 84.1295 24.8863C84.2391 24.9596 84.368 24.9987 84.4998 24.9987C84.7635 24.9987 85.0213 25.0769 85.2406 25.2234C85.4599 25.3699 85.6308 25.5782 85.7317 25.8218C85.8326 26.0654 85.859 26.3335 85.8076 26.5922C85.7561 26.8508 85.6291 27.0884 85.4426 27.2748C85.2562 27.4613 85.0186 27.5883 84.76 27.6397C84.5013 27.6912 84.2332 27.6648 83.9896 27.5639C83.746 27.463 83.5377 27.2921 83.3912 27.0728C83.2447 26.8535 83.1665 26.5957 83.1665 26.332C83.1665 26.2436 83.2016 26.1588 83.2641 26.0963C83.3266 26.0338 83.4114 25.9987 83.4998 25.9987C83.5882 25.9987 83.673 26.0338 83.7355 26.0963C83.7981 26.1588 83.8332 26.2436 83.8332 26.332C83.8332 26.4639 83.8723 26.5928 83.9455 26.7024C84.0188 26.812 84.1229 26.8975 84.2447 26.948C84.3665 26.9984 84.5006 27.0116 84.6299 26.9859C84.7592 26.9602 84.878 26.8967 84.9712 26.8034C85.0645 26.7102 85.128 26.5914 85.1537 26.4621C85.1794 26.3328 85.1662 26.1987 85.1158 26.0769C85.0653 25.9551 84.9799 25.851 84.8702 25.7777C84.7606 25.7045 84.6317 25.6654 84.4998 25.6654ZM81.1665 26.6527V23.323C78.7722 23.2587 76.3142 22.8397 75.1665 22.0374V24.9987C75.1665 25.638 77.4425 26.5507 81.1665 26.6527Z" fill="#C0A615"/>
<path d="M75.1665 20.9992C75.1665 21.6392 77.4425 22.5526 81.1665 22.6542V21.6659C81.1665 21.4007 81.2719 21.1463 81.4594 20.9588C81.6469 20.7712 81.9013 20.6659 82.1665 20.6659H88.4998V17.6992C87.2752 18.5559 84.5425 18.9992 81.8332 18.9992C79.1238 18.9992 76.3912 18.5559 75.1665 17.6992V20.9992Z" fill="#C0A615"/>
<path d="M81.8332 13.9993C85.5151 13.9993 88.4998 13.2532 88.4998 12.3327C88.4998 11.4122 85.5151 10.666 81.8332 10.666C78.1513 10.666 75.1665 11.4122 75.1665 12.3327C75.1665 13.2532 78.1513 13.9993 81.8332 13.9993Z" fill="#C0A615"/>
<path d="M75.1665 16.6652C75.1665 17.3449 77.7635 18.3319 81.8332 18.3319C85.9028 18.3319 88.4998 17.3449 88.4998 16.6652V13.3652C87.2752 14.2219 84.5425 14.6652 81.8332 14.6652C79.1238 14.6652 76.3912 14.2219 75.1665 13.3652V16.6652ZM87.8332 26.9986C87.8908 26.9978 87.9481 26.9894 88.0035 26.9736L87.9308 26.9009C87.8701 26.838 87.8365 26.7538 87.8373 26.6664C87.838 26.579 87.8731 26.4954 87.9349 26.4336C87.9967 26.3718 88.0803 26.3368 88.1677 26.336C88.2551 26.3352 88.3393 26.3688 88.4022 26.4296L88.4748 26.5022C88.4906 26.4468 88.4991 26.3895 88.4998 26.3319V24.3319C88.4998 24.1551 88.4296 23.9855 88.3046 23.8605C88.1796 23.7355 88.01 23.6652 87.8332 23.6652C87.6564 23.6652 87.4868 23.7355 87.3618 23.8605C87.2367 23.9855 87.1665 24.1551 87.1665 24.3319V26.3319C87.1665 26.5087 87.2367 26.6783 87.3618 26.8033C87.4868 26.9283 87.6564 26.9986 87.8332 26.9986Z" fill="#C0A615"/>
<path d="M115.862 23.5811C115.862 24.3428 115.672 24.9932 115.291 25.5322C114.916 26.0654 114.389 26.4727 113.709 26.7539C113.029 27.0352 112.229 27.1758 111.31 27.1758C110.823 27.1758 110.363 27.1523 109.93 27.1055C109.496 27.0586 109.098 26.9912 108.734 26.9033C108.371 26.8154 108.052 26.707 107.776 26.5781V25.1455C108.216 25.3271 108.752 25.4971 109.385 25.6553C110.018 25.8076 110.68 25.8838 111.371 25.8838C112.016 25.8838 112.561 25.7988 113.006 25.6289C113.451 25.4531 113.788 25.2041 114.017 24.8818C114.251 24.5537 114.368 24.1611 114.368 23.7041C114.368 23.2646 114.271 22.8984 114.078 22.6055C113.885 22.3066 113.562 22.0371 113.111 21.7969C112.666 21.5508 112.057 21.29 111.283 21.0146C110.738 20.8213 110.258 20.6104 109.842 20.3818C109.426 20.1475 109.077 19.8838 108.796 19.5908C108.515 19.2979 108.301 18.958 108.154 18.5713C108.014 18.1846 107.943 17.7422 107.943 17.2441C107.943 16.5586 108.116 15.9727 108.462 15.4863C108.813 14.9941 109.297 14.6191 109.912 14.3613C110.533 14.0977 111.245 13.9658 112.048 13.9658C112.733 13.9658 113.366 14.0303 113.946 14.1592C114.532 14.2881 115.068 14.4609 115.555 14.6777L115.089 15.9609C114.626 15.7676 114.134 15.6064 113.612 15.4775C113.097 15.3486 112.563 15.2842 112.013 15.2842C111.462 15.2842 110.996 15.3662 110.615 15.5303C110.24 15.6885 109.953 15.9141 109.754 16.207C109.555 16.5 109.455 16.8486 109.455 17.2529C109.455 17.7041 109.549 18.0791 109.736 18.3779C109.93 18.6768 110.234 18.9434 110.65 19.1777C111.072 19.4062 111.629 19.6465 112.32 19.8984C113.076 20.1738 113.718 20.4668 114.245 20.7773C114.772 21.082 115.174 21.457 115.449 21.9023C115.725 22.3418 115.862 22.9014 115.862 23.5811ZM129.635 20.5576C129.635 21.6123 129.491 22.5674 129.204 23.4229C128.917 24.2783 128.489 25.002 127.921 25.5938C127.358 26.1855 126.655 26.6162 125.812 26.8857L128.835 30.0586H126.699L124.212 27.1582C124.136 27.1582 124.057 27.1611 123.975 27.167C123.898 27.1729 123.822 27.1758 123.746 27.1758C122.75 27.1758 121.88 27.0176 121.136 26.7012C120.397 26.3848 119.782 25.9336 119.29 25.3477C118.804 24.7617 118.438 24.0615 118.191 23.2471C117.951 22.4326 117.831 21.5303 117.831 20.54C117.831 19.2275 118.048 18.0762 118.481 17.0859C118.915 16.0957 119.571 15.3252 120.45 14.7744C121.335 14.2236 122.442 13.9482 123.772 13.9482C125.044 13.9482 126.113 14.2207 126.98 14.7656C127.854 15.3105 128.513 16.0781 128.958 17.0684C129.409 18.0527 129.635 19.2158 129.635 20.5576ZM119.404 20.5576C119.404 21.6475 119.56 22.5908 119.87 23.3877C120.181 24.1846 120.655 24.7998 121.294 25.2334C121.938 25.667 122.756 25.8838 123.746 25.8838C124.742 25.8838 125.557 25.667 126.189 25.2334C126.828 24.7998 127.3 24.1846 127.604 23.3877C127.909 22.5908 128.062 21.6475 128.062 20.5576C128.062 18.8994 127.713 17.6045 127.016 16.6729C126.324 15.7354 125.243 15.2666 123.772 15.2666C122.776 15.2666 121.956 15.4805 121.312 15.9082C120.667 16.3359 120.187 16.9453 119.87 17.7363C119.56 18.5215 119.404 19.4619 119.404 20.5576ZM132.5 27V14.1504H133.994V25.6641H139.698V27H132.5Z" fill="#E6E6E6"/>
</svg>
